<?xml version="1.0" encoding="UTF-8"?>
<svg id="Layer_1" data-name="Layer 1" xmlns="http://www.w3.org/2000/svg" viewBox="0 0 1058.85 458.06">
  <defs>
    <style>
      .cls-1 {
        stroke: #fff;
        stroke-miterlimit: 10;
        stroke-width: 4px;
      }
    </style>
  </defs>
  <path class="cls-1" d="M459.34,351.71l-9.96-2.39c.17-1.16-.47-2.57-.44-3.55.12-3.63,3.51-4.89,5.39-7.47,2.08-2.86,4.37-9.2,4.14-12.7-.28-4.38-2.4-3.03-5.3-4.31-6.85-3.02-7.87-5.49-16.44-3.95-15.77,2.83-6.06,15.16-7.08,25.8l-24.13-6.69c-2.96-2.36,4.85-7.52.14-9.15-.52,2.12-.94,4.37-2.2,6.21-1.05,1.54-7.47,6.43-7.46,6.99.1,4.16,7.82,3.69,10.61,4.57.08.52-.07.97-.22,1.46-.92,3.01-7.98,13.49-10.14,16.74-1.68,2.52-3.44,5.3-5.28,7.68s-12.09,13.08-12.15,14.65c-.02.66.74,1.56.23,2.21-2.27.57-3.82,1.58-5.57,3.09-6.83,5.88-11.97,12.67-19.72,18.68-24.18,18.74-53.13,32.27-82.96,39.17-.03-3.99-4.2-16.4,1.3-17.66,6.21-1.42,11.42,7.58,18.34,3.46,9.54-5.69,10.49-30.82-6.71-27.35-4.91.99-11.23,7.7-14.54,7.45-5.31-.39-5.66-8.03-4.02-11.86,35.45-14.41,65.21-40.65,86.24-72.36.91-.55,1.96-.21,2.9-.02,4.58.92,17.27,8.09,21.07,4.81,2.78-2.4-1.35-8.96-1.78-12.11-2.88-21.04,33.68-12.37,33.97-1.3.06,2.22-1.64,4.95.7,6.93,3.81-8.6,8.58-16.78,11.76-25.66,10.94-30.47,11.45-68.64,1.44-99.38-1.32-4.04-9.12-23.98-11.55-25.89-.95-.75-2.73-.63-3.12-1.19-.28-.41-.51-3.6-.94-4.82-2.1-5.98-13.14-13.01-14.04-17.65-.84-4.29,6.82-9.78,8.62-14.19,4.34-10.58-7.82-4.46-12.42-6.95-1.8-.97-9.7-9.15-10.12-11-.86-3.8,1.84-11.26,4.22-14.3,6.65-8.52,17.7-5.98,23.98,1.45,1.39,1.65,2.52,4.57,4.35,5.73,1.61,1.02,3.64.95,5.42,1.78,19.23,8.93,44.41,53.11,52.7,72.56,21.94,51.5,16,113.37-9.26,162.51Z"/>
  <path class="cls-1" d="M219.01,54.64c2.53,2.23,23.18-11.71,26.86-13.69,21.5-11.55,49.08-23.04,72.21-30.96,2.28-.78,15.33-5.41,16.56-4.31-3.82,10.5-14.74,17.84-24.15,23.12-18.77,10.53-39.38,16.39-54.31,33.03-.7.79-6.08,7.13-5.51,7.68,8.97-3.09,17.88-6.32,27.26-8.01,8.51-1.53,18.61-2.58,27.19-1.59,4.33.5,14.01,3.55,17.53,2.65,1.9-.49,5.41-4.08,5.26.7l-1.43.02c-.83.69,6.14,1.87,6.82,2.05,11.88,3.2,23.21,8.63,33.95,14.5.02,1.07-10.98,6.58-12.2,8.42-.66.99-1.98,6.13-2.13,7.47-.73,6.49,1.28,11.76,8.01,13.49,3.27.84,15.14,1.2,14.89,6.49s-7.31,13.48-9.74,18.13c-7.38-5.37-13.52-12.14-21.01-17.38-17.37-12.17-40.24-20.07-61.5-21.03-2.3-.1-11.91-.35-13.2.76s-1.62,5.14-5.29,2.38c-.26-1.21,2.33-.91,1.19-2.16-10.22,2.69-21.05,7.52-29.94,13.25-1.75,1.13-3.72,2.22-4.84,4.03,4.94.28,10.22-.36,15.12,0,2.93.22,10.06,1.23,12.84,2.04,3.98,1.15,7.66,5.76,12.33,5.67l.02,3.34h-5.28s.72-1.93.72-1.93l-2.63,1.92-.06-1.36-4.74-1.52.96,2.18-.77,1.16-3.07-1.67,1.43-1.67h-5.75s1.44,2.87,1.44,2.87c-2.67.65-3.72-2.26-6.24-1.92v1.92c-1.05.12-1.57-.87-2.62-.9-2.08-.07-9.17,3.27-11.47,4.33-6.84,3.18-13.27,8.09-20.73,9.5-2.01,2.77,5.47,4.19,7.24,4.35,6.62.6,13.09-1.34,19.42-2.87.4,2.81-3.9,3.47-4.83,5-.7,1.15-.17,2.66-1.41,3.42-4.3-.7-8.44.84-12.71,1.17-16.37,1.27-32.4-1.62-48.79,1.59-10.81,2.12-21.72,6.97-31.56,11.62l1.43.96-1.24,1.72c-4.29-2.59-8.25.94-12.67-.51.19,1.34,3.66.79,3.84.96.44,2.28-1.32,2.73-3.1,3.38-3.85,1.4-8.15.9-10.73,4.62-.77,1.12-2.94,6.45-3.52,6.79-2.86,1.68-9.46-8.38-10.56-10.63-4.69-9.59-.57-18.19.09-28.17l2.15.03,5.04-8.91,1.95,1.9c4.42,3.32,11.59-.97,15.58-3.56,5.47-3.54,13.49-10.17,15.81-16.34,2.04-5.44,1.18-11.91,3.83-17.29,3.35-6.81,20.14-16.44,26.65-21.82,8.45-6.97,15.45-15.66,23.5-23.05,13.68-12.57,29.86-23.75,45.63-33.55,6.52-4.05,15.31-8.09,21.23-12.36,1.85-1.33,4.31-5.6,6.54-3.53-1.29,1.83-2.1,4.78-3.8,6.27-1.07.94-2.22.93-3.12,1.68-5.04,4.23-9.85,11.33-15.13,16.06-6.78,6.08-14.82,10.73-21.61,16.79-1.06.95-10.46,10.1-9.11,11.28ZM218.46,54.71c-.1-.16-1.35-.53-1.66-.54-2.48-.07-1.55,2.52-2.58,3.6-.6.63-2.43.75-3.36,1.44-1.02.76-5.56,6.93-4.8,7.91l12.03-9.32c.52-.63.72-2.53.37-3.09ZM179.66,103.61c-2.8-.35-4.99.35-7.52,1.35-.66.26-9.27,4.61-7.83,5.84,3.16-1.48,5.92,2.54,8.65,1.72,2.53-.76,2.27-4.23,3.33-4.85s2.98.36,3.85-.96l-.99-1,.51-2.11Z"/>
  <path class="cls-1" d="M11.72,226.96c-1.39,37.6,2.1,74.91,19.9,108.49,6.97,13.16,24.83,38.04,37.53,45.49,1.38.81,5.28,2.07,5.92,2.74.89.94-.22,1.98.59,2.97,1.39,1.7,9.7,6.84,12.1,8.31,25.72,15.85,55.55,22.77,85.66,23.03l-.48-1.91c20.25,2.6,39.69-4.58,58.78-10.09,1.12-.04.54.1.71.74.67,2.56.35,4.78,1.83,7.29,4.11,7,8.41-2.87,12.73-4.75,15.23-6.61,22.48,16.02,13.27,26.72-7.05,8.18-15.29-.26-23.5-1.19l.94,16.12c.07.66-.27.83-.8,1.06-2.37,1.02-11.27,2.02-14.36,2.43-22.13,2.9-45.58,1.91-67.44-2.48C67,434.24-10.36,344.32,3.65,251.76c.54-3.59,4.35-22.84,6.36-24.35.58-.43.99-.55,1.71-.44Z"/>
  <path class="cls-1" d="M522.15,204.02c.33.56.14,3.07.04,3.93-.06.54-.21,3.07-1.13,2.69-9.64-11.48-19.52-24.18-33.35-30.71-.85.97,1.87,6.53,2.46,7.85,3.83,8.58,9.56,16.63,13.93,24.95,10.25,19.5,18.56,44.65,19.61,66.78.15,3.12.53,15.86-1.66,17.59l-3.64-.05c2.85-12.58-7.24-22.78-11.77-33.62l-.73-.27-3.25,1.33,1.86,26.06c-.19,23.32-1.07,47.02-8.25,69.31-4.67-.72-12.79.09-14.11-5.71-2.43-.15-1.67,1.98-4.77,1.98-1,0-8.01-1.65-9.02-2.05-.36-.14-.58-.31-.8-.62,8.03-14.92,13.81-31.2,17.51-47.76,9.69-43.45,5.82-88.15-12.2-128.8-4.74-1.33-2.84-3.32-3.73-6.95-1.01-4.13-10.54-17.83-13.48-22.04-8.85-12.65-18.19-21.63-29.38-32.05-1.07-.99-5.49-4.98-5.2-6.13l11.44-18.36c2.87-1.42,12.31,3.81,15.2,5.44,5.92,3.35,11.26,7.67,16.99,11.32,1.54.98,11.63,5.82,4.51,5.59-4.98-.16-12.08-4.2-17.8-4.77-1.46-.15-7.74-.66-7.34,1.55,25.6,23.34,51.31,46.8,68.66,77.26,2.54,4.46,4.99,11,7.66,14.9.59.87,1.65,1.19,1.75,1.36Z"/>
  <path class="cls-1" d="M787.35,326.32l11.27,21.37c.65,2.18-4.21-2.18-3.35-.02.49,1.23,5.08,8.63,6.02,9.82.32.4.77,1.15,1.4.99l3.51-4.57-4.11-3.72,6.36-23.87h39.58l-10.93,17.44,21.96,43.52-36.23-22.97-9.18,13.62,39.17,65.77-.23.71-12.71-13.92,11.51,18.24h-18.47l-29.27-43.68,8.87,37.44-20.64-31.68c-.9-.19-1.16.46-1.63,1-3.22,3.68-5.54,9.42-8.91,13.16v23.76h-15.83l.24-122.4h21.59ZM844.21,328.24h-34.07l-5.24,19.96c.11,1.61,5.21,3.73,4.71,5.63-.21.81-6.78,6.46-6.18,7.06l40.78-32.64ZM781.35,351.76v15.36h12l-9.11-13.44c.1.94.02,1.11-.96.96l-1.93-2.88ZM802.47,370.48h-33.11c.77,1.59.74,5.13,1.42,6.39.3.55,1.3.19,1.87,1.12.24.39,1.97,6.97,2.01,7.63.12,2.13-3.36,11.8-2.9,12.22,4.66,1.08,4.32-5.14,7-7.63l10.23-2.48-.45-4.77h2.88s0-3.84,0-3.84h4.8s0,5.76,0,5.76h6.24v-14.4ZM806.78,426.64l-8.39-30.24-6.75,5.76-.15.63,15.29,23.85Z"/>
  <path class="cls-1" d="M589.43,46h23.51c.11,2.29-3.25,3.08-4.75,4.61-.56.58-.89,1.32-1.49,1.87v20.4h26.39v-19.44c0-1.45-3.32-5.16-4.83-5.8l.74-1.71c.58-.48.81.06.97.06h19.43c.51,2.81-2.54,3.2-3.64,5.24-.6,1.11-.94,2.91-1.1,4.18-1.01,7.87-1.08,19.23-1.04,27.32.03,5.03.22,18.24,2.32,22.16.97,1.8,3.18,3.3,3.46,5.42h-21.11c.13-2.39,4.8-5.18,4.8-7.44v-23.76h-26.39v24.24c0,1.1,5.26,5.04,5.28,6.96h-22.79c-2.03-1.7,1.45-2.29,2.61-3.15,2.96-2.22,1.46-2.94,1.97-5.71.2-1.1,1.32-1.73,1.41-2.92.12-1.66-1.63-4.77-1.45-6.16.05-.37,1.03-.09,1.02-.99,0-.98-.55-2.08-.54-3.37.02-3.68,1.47-7.64-.42-11.08l1.4-1.42-2.29-1.92c1.48-2.69,2.73-5.22,2.28-8.41-3.16,1.49-.45-1.99-.55-2.56s-1.17-.87-.89-1.76l1.44.24c.63-2.03-1.8-.52-1.42-1.89.17-.64,1.35-1.89,1.29-2.43-.05-.47-1.09-.88-1.21-1.49-.11-.54.45-1.52.41-2.34-.13-2.63-3.52-4.56-5.07-6.48l-.67,1.13-1.02.07c-1-4.27-3.52-7.75-7.34-9.94-.74-.43-4.91-2.31-5.37-2.31h-11.76l.48,66.48c-.2,4.85,6.22,4.66,6.72,8.4h-24.71l-.49-.95c.93-1.91,2.8-2.59,4.1-4.08.33-.38,1.43-1.63,1.43-1.93V35.44h-10.8c-.74,0-5.78,1.93-6.64,2.48-3.13,1.98-3.55,6.09-7.03,6.64l1.44-15.36h60.22l.72,1.2.96,15.6Z"/>
  <path class="cls-1" d="M559.2,313.84c-.12-2.3,2.47-2.52,3.8-3.63,4.94-4.1,5.32-8.25,5.79-14.37.99-13.14.43-26.69-.02-39.82-.19-5.67.42-20.57-2.37-24.99-1.59-2.51-5.67-3.86-6.72-6.95,5.07.75,10,1.03,15.13.97,16.36-.19,34.41-2.54,49.12,6.5,22.97,14.1,26.1,52.3,5.8,70.05s-46.61,11.12-70.54,12.23ZM582.71,230.8v74.4c23.85,4.95,43.13-7.34,44.65-32.38.14-2.3.11-12.43-1.23-13.71-.51-.49-1.58-.29-1.71-.76-.2-.72.15-2.21-.02-3.26-1.99-12.33-14.95-21.32-26.41-23.97-5.38-1.25-9.89-.39-15.28-.31Z"/>
  <path class="cls-1" d="M687.07,240.4c1.88.27,12.73,4.92,13.94,6.22.96,1.02,3.42,5.65,3.95,7.09,4.54,12.48-3.31,22.6-14.76,26.77,5.91,7.68,10.54,16.68,16.6,24.19,2.42,2.99,4.99,6.81,9.29,6.79l.02,2.38c-6.66-.3-13.1,1.9-18.95-2.4-4.29-3.15-13.95-18.94-17.05-24.22-.64-1.09-1.1-4.09-2.62-4.09h-7.92v21.84c0,.46,4.41,5.59,5.11,6.45l3.53-1.89-.48,4.8c-.67.28-1.43-.48-1.68-.48h-27.11c-.15-2.54,3.16-2.95,4.81-4.54,2.89-2.78,1.57-4.78,1.91-8.17,1.37-13.92,2.28-29.23,1.46-43.23-.23-3.96-1.01-10.93-4.37-13.39-1.3-.95-4.16-1.49-4.55-3.14l.5-.97h38.39ZM669.56,247.12v29.52c0,1.49,4.13-.55,5.08-.68,6.28-.84,10.27,1.1,14.8-5.35,3.61-5.14,3.97-16.52-1.48-20.54-4.22-3.11-13.38-4.66-18.4-2.95Z"/>
  <path class="cls-1" d="M1023.42,240.4c.28,0,.61-.54,1.55-.18l1.08,1.38c-.81,1.02-2.1.61-3.21,1.09-2.54,1.11-5.08,4.25-5.42,7.05.54,21.58-.67,43.27-.01,64.84.03.92.37,1.72.5,2.61-1.69.47-1.35-.97-2.51-1.56s-2.57-.56-3.98-1.3c-4.49-2.37-9.34-11.02-12.71-15.12-5.98-7.27-12.76-14.2-18.68-21.63-2.96-3.72-10.11-15.54-13.3-17.41-.54-.31-.88-.71-1.59-.57v46.8l4.32,2.66-.48,1.9h3.36s0,2.88,0,2.88h-21.35c-.2,0-.9.95-1.46.02l-.22-2.42c4.68.55,6.86-3.47,7.62-7.5,2.22-11.73,1.18-30.51.52-42.64-.4-7.39.94-17.55-9.1-18.5l.21-1.95c.33-.49.94-.41,1.45-.47,3.29-.39,11.57-.34,14.93,0,.68.07,1.36-.05,1.91.48,9.24,11.36,18.97,22.38,28.03,33.88,4.55,5.77,8.55,12.09,13.44,17.51.12-10.16-.14-20.34-.01-30.5.01-1.13.5-2.19.52-3.32.1-4.86-.06-8.6-2.05-13.1-.85-1.03-2.69.02-3.25-.32s-1.3-3.05-2.87-3.4l.72-1.2c7.36.05,14.72-.07,22.07,0Z"/>
  <path class="cls-1" d="M874.44,296.56v-4.8s-1.92,0-1.92,0l1.46-1.2c-3.85-15.71-1.42-33.7,12.45-43.68l-1.44-1.67c4.14.53,7.38-2.74,11.05-4.07,22.09-8.07,45.67,4.73,49.74,27.98,4.64,26.57-13.53,48.34-40.86,46.16-3.41-.27-14.06-3-16.81-4.79-3.44-2.23-9.7-13.56-12.18-14.16-.48-.11-1.38.37-1.49.23ZM895.01,300.46c.18.18.04,1.31.28,1.86,2.68,6.11,12.72,7.92,18.6,6.59,24.88-5.65,24.51-61.09-3.71-63.7-4.48-.41-9.54.76-12.9,3.89-1.68,1.56-3.29,4.72-4.59,6.43-.61.8-1.58,1.34-2.14,2.19-5.84,8.92-4.68,31.72,1.08,40.62,1.63,2.53,2.99,1.74,3.39,2.13Z"/>
  <path class="cls-1" d="M854.77,264.4c.47-4.06-2.05-7.64-4.55-10.57-16.07-18.82-40.29-5.94-41.98,16.57-.73,9.7.45,21.01,6.72,28.78.82,1.02,5.22,6,5.27,3.13h.47c1.06,4.34,7.87,6.37,11.82,6.65,2.51.18,9.77-.65,11.81-1.86,2.86-1.69,1.73-19.09.87-22.73l-4.35-.79.49-2.87h-2.4s0-2.88,0-2.88c1.65.43,3.8.9,5.49.98,4.19.2,9.52-.4,13.93-.5,2.27-.05,4.21-1.62,5.98,1.2-1.07,1.61-3.1,1.93-4.3,3.36-4.77,5.68.6,18.93-2.04,24.84-1.41,3.16-6.77,2.05-7.07,5.65-1.93-1.67-5.19.31-7.65.74-7.99,1.39-14.49,1.79-22.48-.1-1.94-.46-4.61-1.85-6.13-2.07-.95-.13-1.27-.09-1.15.95h-.47c.04-.84.09-1.45-.48-2.16-1.02-1.25-6.14-3.97-7.9-5.53-16.27-14.39-14.11-43.84,1.92-57.57,14.01-11.99,32.56-8.77,49.19-5.55l1.78,21.64-2.76.7Z"/>
  <path class="cls-1" d="M726.9,110.32l-.48-.96c1.57-2.44,5.48-2.91,5.98-6.03,1.05-6.69-.17-17.65,0-24.95.03-1.02.47-1.96.49-2.87.26-11.5,1.29-24.63-.05-35.94-.56-4.77-1.58-6.28-6.64-5.6l-.51-4.78c2.2-.33,4.31.44,6.46.5,16.85.52,42.69-5.45,51.01,14.25,8.23,19.49-6.95,38.17-27.47,36.12-3.83-.38-4.46-1.58-5.04-5.27,13.07,3.56,22.8-9.11,20.66-21.29l-1.95-.55,1.93-.24c.02-13.8-13-20.2-25.43-17.28v65.52c0,.38,1.11,3.33,1.44,3.84,1.05,1.64,3.64,2.63,4.8,4.32l-.72,1.19h-24.47Z"/>
  <path class="cls-1" d="M602.86,207.76l.02-2.38c1.59.07,2.8-.56,4.05-1.46.69-.5,4.73-5.17,5.14-5.9,2.2-3.88,10.77-27.9,11.71-32.49.24-1.16-.31-2.26-.24-2.36.05-.07,1-.32,1.41-.74,2.14-2.24,2.75-4.85,3.83-7.7,1.2-3.15,4.94-13.54,4.82-16.32-.14-3.06-4.33-4.27-4.34-7.44,4.83,2.05,14.62-2.76,17.63,2.28,2.63,4.42,4.03,12.45,6,17.52,5.47,14.07,9.91,29.22,16.11,42.92,1.9,4.19,4.36,10.61,9.14,11.74l.06,2.34h-26.39c-.34-2.78,2.44-2.81,3.84-4.57l-.98-.98.51-2.13,1.43.48c-.07-1.75.41-3.78-.72-5.28-.47-.63-1.58-.85-1.68-1.3-.17-.75.14-1.76-.1-2.67-.51-1.9-2.85-10.02-4.2-10.67-1.87-.9-4.9.25-6.94.26-5.77.04-11.63-1.28-17.48.04-1.21,5.29-7.93,16.87-4.39,21.79,1.47,2.05,5.43,2.22,5.29,5.03h-23.51ZM638.84,147.28h-1.42s-9.12,27.36-9.12,27.36l18.47-.48,1.2-.73c-2.23-5.2-2.96-11.24-5.19-16.39-1.17-2.7-2.11-3.83-4.4-5.68,1.62.28.69-3.9.47-4.08Z"/>
  <path class="cls-1" d="M721.38,313.84c-.13-.85-.02-1.05.5-1.66,1.34-1.57,4.55-2.5,6.21-4.34s3.65-6.36,4.73-8.71c5.78-12.5,11.54-28.98,15.91-42.16,1.09-3.29,3.59-8.65,1.65-11.75-.75-1.2-6.07-4.4-1.92-4.85,4.59-.49,10.21-.04,14.92-.49l.75.32c2.98,7.98,5.28,16.25,8.34,24.2.66,1.71,2.2,3.65,3.01,5.63,3.76,9.33,9.2,33.73,16.46,39.69,1.54,1.27,4.36,1.15,3.81,4.11-7.87.48-16.46-.63-24.25-.02-1.33.11-2.41.35-3.58.98l.72-3.38,2.15.02.02-1.91,1.93-.22c1.44-2.87-.38-5.99-.51-8.91l-1.91.96c-.44-1.2.83-2.2.84-3.02,0-.73-2.09-7.16-2.51-7.55-.62-.57-3.33-.89-4.31-.97-4.8-.37-15.1-.56-19.72,0-2.04.24-2.25,2.42-2.97,4.23-2.62,6.6-5.45,16.54,4.68,17.4.33.69-.75,2.4-1.2,2.4h-23.75ZM746.33,283.6h19.67c-.92-2.41-5.21-17.97-6.32-18.64-.5-.3-1.68.07-1.84-.08-.13-.11.5-2.25.29-3.37-.11-.6-2.24-5.62-2.68-5.27l-9.12,27.36Z"/>
  <path class="cls-1" d="M885.48,207.76c-.28-1.87,1.75-2.55,2.62-3.86,1.29-1.96,1.59-6.38,1.73-8.83.6-10.92,1.02-29.23-.03-39.86-.35-3.57-1.89-5.68-4.3-8.16.46-.7.92-.66,1.65-.74,5.12-.56,11.46,1.23,16.84.53,1.69-.22,1.67-1.33,3.09-1.46-1.03,1.59-.35,4.36-1.91,5.28l-.71-1.91c-.55.15-3.13,2.37-3.13,2.63v20.88h23.99v-20.4c-.76-1.78-3.47-1.68-4.31-2.41-.65-.56-.44-2.26-1.93-2.16.71-1.75,2.59-.48,4.06-.45,4.69.1,11.39.46,15.86-.01,1.11-.12,1.7-.46,2.62-.97l.43,1.21c-.84.96-2.14,1.29-3.02,2.2-3.25,3.37-3.46,10.54-3.66,15.05-.41,9.09-.89,24.95.55,33.57.92,5.51,3.92,5.3,5.23,9.89h-20.63c-.11-2.57,2.79-2.75,3.93-4.94,3.25-6.2-.05-16.98.86-23.86h-23.99v23.28l5.75,5.29c.13,1.46-.52.23-.71.23h-20.87Z"/>
  <path class="cls-1" d="M747.77,207.76c.43-3.95,3.29-2.8,4.2-7.56,1.85-9.7,1.44-35.34,0-45.35-.7-4.87-3.04-4.4-5.15-8.04,12.66.65,25.88-2.64,38.03,2.03,23.8,9.14,23.68,45.39.05,55.5-3.54,1.51-7.14,1.52-9.94,2.55-1.17.43.16.88-1.51.88h-25.67ZM763.6,152.56v48.48c21.21,4.95,32.49-18.12,24.88-35.69-1.43-3.3-7.56-11.09-10.85-12.18-4.42-1.47-9.48-1.21-14.03-.6Z"/>
  <path class="cls-1" d="M696.91,146.8c1.52,3.91,5.05,7.04,7.66,10.34,7.72,9.74,14.8,19.99,22.81,29.5l.51-.99,1.16.51c.3-4.32-1.47-8.32-.93-12.69.11-.85.93-1.85.92-1.95-.04-.39-1.16-.54-1.32-.81-.48-.8.12-3.55-.1-4.71l1.43.48c-.14-1.68.78-4.15-1.43-4.33v-.71c2.71-1.19,1.51-3.82-.48-5.29l.97-.48-.99-1.92,1-.49-.1-.88c-1.41-2.54-5.31-3.33-5.2-6.56,1.09.07,1.36.81,2.61.98,3.61.5,10.03.05,13.96,0,1.31-.02,2.69-1.09,3.57.22-3.5,1.4-6.15,3.62-6.22,7.69l-1.42,52.82c-1.82.5-4.37.34-5.8-.98-9.15-11.11-17.44-24.23-27.09-34.82-1.4-1.54-2.9-3.77-5.02-2.88-.53-.36-.81-5.58-2.91-5.27v36.24c0,.24,1.53,4.37,1.69,4.55,1.19,1.41,5,.29,4.07,3.37h-17.99l-.5-.97c.51-1.73,2.46-1.72,3.6-2.65,2.5-2.02,3.21-9.29,3.4-12.44.55-9.26.84-26.12-.55-35.01-.48-3.03-1.65-5.09-4.04-7h-.69c-.17.82-.41,1.63-1.45,1.43.26-1.82-.41-2.95-1.44-4.32h16.31Z"/>
  <path class="cls-1" d="M301.56,47.4c26.9-4.45,53.14,1.69,78.3,10.72,3.19,1.15,25.77,9.7,26.53,10.92.31.5.31,1.02.14,1.57l-13.07,19.05c-9.3-6.57-18.7-15.89-29.42-20.03-2.29-.88-5.2-1.13-7.36-2.24-1.97-1.01-3.03-3.09-4.91-4.21-3-1.79-9.49-4.34-12.81-3.26l.37-1.7-37.61-8.36-1.87,1.89-2.82-1.87-.3-.99,4.56-2.89.26,1.39Z"/>
  <path class="cls-1" d="M852.85,110.32c-.12-.7.12-1.18.38-1.78,4.48-10.66,14.64-22.89,20.02-33.73.96-1.93,1.43-2.52.71-4.8l2.43-.82,9.55-16.71c-.33-.47-.63-.62-1.19-.72-4.51-.78-16.7.32-21.13,1.9-3.17,1.13-5.01,3.4-6.86,6.1-1.07,1.56-.87,4-3.44,3.99l2.39-18.24,46.06.49-31.67,58.08h16.55c3.3,0,9.55-3.4,11.74-6.01.72-.86,3.06-5.65,4.33-4.55l-2.4,16.8h-47.5Z"/>
  <path class="cls-1" d="M810.62,46c-.26,2.72-3.39,3.71-4.34,6.45-1.84,5.34-1.29,26.52-.95,33.16.46,9.04,2.24,18.72,13.19,19.44s16.45-6.4,17.08-17.04c.35-5.92.68-32-1.53-35.96-.49-.89-5.9-5.45-5.21-6.06l20.15.24c.15.94-4.15,3.19-5,4.59-2.8,4.64-1.74,24.93-1.74,31.42,0,1.64.55,3.31.52,5.28-.28,18.64-10.68,24.42-28.11,23.28-30.01-1.95-17.9-35.2-20.43-54.44-.17-1.32-.47-3.64-1.01-4.75-.85-1.76-3.73-3.48-4.21-5.63h21.59Z"/>
  <path class="cls-1" d="M957.45,46l-31.67,58.08h18.95c1.31,0,8.25-4.33,9.38-5.5,2.14-2.23,2.74-6.19,5.73-7.46-1.58,6.3-2.56,12.7-2.87,19.2h-47.5l32.15-58.56h-15.59c-4.75,0-12.21,4.32-14.06,8.97l-1.77,3.98c-2.64-2.43-.24-5.68.19-8.44s.08-6.65.53-9.07c.1-.54.24-.9.72-1.2h45.82Z"/>
  <path class="cls-1" d="M1051.25,46l.72,1.2.48,15.12c-3.05.02-3.52-3.94-4.88-5.92-1.55-2.27-5.61-4.64-8.32-4.64h-10.56l-.72.72v21.84h12.24c.2,0,3.3-1.47,3.59-1.69,1.61-1.18,1.57-4.03,4.33-3.59v17.28c-2.89.58-2.36-2.31-3.83-4.09-3-3.61-12-2.92-16.32-3.11v24.96h13.19c1.84,0,7.02-2.19,8.39-3.6s3.02-5.6,5.12-5.88c1.52-.2,2.37,1.61,2.11,2.91-.08.41-1.74.77-2.3,2.14-1.32,3.2.16,7.74-1.81,10.67h-41.02c-.35-2.13,2.12-2.72,3.09-3.87,2.36-2.82,2.55-13.39,2.7-17.46.3-8.31-.05-16.75-.5-24.99-.2-3.62.39-11.79-2.43-14.37-1.37-1.25-3.98-.67-2.85-3.63h39.58Z"/>
  <path class="cls-1" d="M671.96,52.24v.96s1.92-.48,1.92-.48v1.44s-1.92,0-1.92,0v18.96c0,.08.74.85.97.95,1.91.89,12.85-.8,14.83-1.95s2.11-4.14,4.83-3.56c.33.84-.96,1.78-.96,2.16v15.6c-2.05-.24-1.74-2.85-3.09-4.34-3.04-3.36-12.34-2.72-16.58-2.86v24.24l.72.72h13.91c.56,0,6.29-2.61,6.92-3.15,1.06-.92,5.14-10.51,5.36-4.29.13,3.69-1.5,9.86-3.16,13.2h-41.5c3.22-3.01,5.55-3.52,6.18-8.45,1.41-10.9,1.16-28.62.55-39.81-.14-2.67-.67-9.24-2.19-11.25-1.18-1.56-3.14-1.28-3.94-2.05-1.22-1.16-.56-2.12,1.05-2.31,11.43-1.31,25.3,1.04,36.99,0,.95-.34,2.62,1.6,2.62,2.18v13.44c0,.06-.7.96-.96.49-2.44-3.43-2.45-6.73-6.71-8.65-.45-.2-3.41-1.2-3.6-1.2h-12.24Z"/>
  <path class="cls-1" d="M985.76,146.8l.48,14.88c-2.75-.59-2.98-4.16-4.84-5.95-.68-.65-5.28-3.17-5.95-3.17h-13.19v20.64c3.52-2.28,9.21-.09,13.08-1.08,2.61-.67,4.1-5.15,7.07-4.68.37,1.65-.74,3.49-.49,5.02.18,1.14,1.51,1.43,1.51,2.9s-1.24,1.77-1.38,2.45c-.15.73.91,5.42.37,5.95-3.66.8-2.76-1.28-4.05-2.43-.81-.73-2.4-.59-3.15-1.19-.49-.4-.42-1.17-.48-1.17h-11.76c-.15,0-.37-.61-.72-.48v21.84c0,.18.49.77.56,1.12,7.76-.79,17.44,1.21,22.69-6.18,1.04-1.46.4-3.38,3.13-2.86l-2.88,15.36h-38.87c-.62-1.8,3.7-6.1,3.72-6.47.02-.41-.8-1.02-.74-1.84.08-1.01,1.19-2.99,1.35-4.87.5-5.71-.57-11.79-.53-17.3.04-5.9,2.45-22.73-1.2-27.08-.89-1.06-2.98-1.39-2.6-3.4h38.87Z"/>
  <path class="cls-1" d="M835.81,137.2c-1.21.16-4.41,1.46-5.49,2.19-3.26,2.21-4.49,7.07-8.19,7.89-.6-.62,2.37-11.28,2.41-13.22.05-2.15-1.41-2.63-1.45-4.53,1.47,1.57,3.07,1.51,5.1,1.85,11.1,1.84,37.16,2.05,48.27.42,1.96-.29,3.34-1.33,5.16-1.79l.96,18.24c-2.77-.71-1.98-2.42-2.76-4.2-.86-1.95-8.41-6.84-10.43-6.84h-10.32v63.12c0,1.19,3.76,5.98,5.76,5.04.35.32-.95,2.4-1.2,2.4h-21.35c-.53-2.44,1.5-2.53,2.66-3.82,5.05-5.57,2.23-36.92,3.11-45.4l-1.46-21.34c-3.39.32-7.51-.44-10.8,0Z"/>
  <path class="cls-1" d="M963.45,110.32l-.53-.99c.28-2.13,2.99-2.14,4.13-4.04,1.26-2.09,1.81-12.77,1.93-15.83.35-8.72.49-19.7,0-28.36-.23-3.99-.43-7.8-2.91-11.01-.68-.88-4.16-3.5-3.34-4.57,7.55.99,15.35,1.25,23.03.48.58,2.5-1.26,1.99-2.85,3.15-2.57,1.88-3.13,5.11-3.38,8.13-1,12.09.71,25.3.5,37.46-.05,3.04-1.25,6.22-.02,9.34h13.67c.84,0,7.03-2.87,7.89-3.63,1.97-1.75,2.63-5.27,5.31-5.97.53.61-1.64,14.35-3.12,15.84h-40.3Z"/>
  <path class="cls-1" d="M425.31,352.74c.22.69-.16,1.13-.43,1.69-2.27,4.74-9.32,13.44-12.8,17.92-13.23,17.02-29.23,31.91-46.78,44.4-5.27,3.75-10.62,7.64-16.74,9.89v-3.84c3.56.67,6.12-2.02,8.64-4.07,17.92-14.58,41.18-40.72,52.38-60.88.75-1.36,3.78-8.45,4.23-8.73,2.17-1.34,9.06,2.94,11.5,3.63Z"/>
  <path class="cls-1" d="M430.61,355.12c1.51.17,10.91,3.45,10.97,4.06l-10.74,28.09-1.21-1.66.98-30.5Z"/>
  <path class="cls-1" d="M389.34,96.87c-6.1,3.51-11.49-4.14-11.51-9.59,3.91,2.37,7.94,4.43,10.79,8.16.37.48.93.61.71,1.44Z"/>
  <path class="cls-1" d="M784.66,379.17c1.02,4.14-1.83,3.96-4.51,5.7l-2.64-6.7,7.14,1.01Z"/>
</svg>