<?xml version="1.0" encoding="UTF-8"?>
<svg id="Layer_1" data-name="Layer 1" xmlns="http://www.w3.org/2000/svg" viewBox="0 0 923.28 913.16">
  <path d="M680.95,536.45c7.93-.67,15.99-1.02,23.61-3.5,10.03-3.26,18.39-9.61,25.67-17.04,29.31-2.52,44.44,27.7,51.42,51.5l-10.02,4.31c1.13,2.84,1.7,5.79,2.26,8.78,1.66,8.94,2.08,20.5,4.7,28.89,1.06,3.38,2.14,3.43,4.98,5.09.47,7.36-1.58,14.81-3.43,21.87-3.36,12.8-10.08,27.76-11.8,40.5-1.44,10.65,4.9,23.53-3.89,31.62l-13.92,9.83h6.72c6.75,17.52,9.43,36.23,14.64,54.22,6.81,23.54,16.87,46.67,17.99,71.5-1.85,1.9-6.64-7.94-7.13-8.94-9.63-19.84-13.64-42.93-19.98-63.99-1.16-3.85-2.94-11.3-4.67-14.53-.82-1.53-2.85-2.81-3.97-4.18-.71.69-1.61,1.4-1.94,2.37-1.24,3.59-1.62,20.1-1.13,24.2.64,5.34,5.98,8.08,6.93,12.74.62,3.01.28,6.98.82,10.21.7,4.22,2.61,8.12,3.57,12.27,5.5,23.75-3.22,50.34,1.32,74.5,1.42,7.54,4.64,14.68,5.96,22.26.54.79,11.03-.86,11.12-1.45-8.3-20.63-6.27-43.27-5.3-64.97l3.34,4.09c1.87,1.96,11.48,9.78,13.69,9.79,2.82.01,6-8.86,6.84-11.37,3.77-11.24-2.22-27.59-5.29-39.09-8.03-30.02-18.9-59.19-26.27-89.4.14-1.23,3.26-2.28,4.49-3.2,12.23-9.18,7.04-17.22,6.09-29.44-1.11-14.25,9.53-36.44,13.29-51,1.61-6.24,5.41-20.58,1.1-25.78-2.84-3.44-2.75-1.53-4.09-6.95-1.86-7.52-2.63-15.37-3.6-23.04,7.74.22,9.87-.12,9.06-8.34-1.69-17.25-16.82-44.18-29.69-55.73-1.85-1.66-6.92-4.35-7.23-6.69.56-8.6-.66-17.93,0-26.43.75-9.51,7.65-7.66,12.48-14.38-3.53-2.32-11.16-1.81-12.36-6.83-.24-1.01-.5-3.54-.59-4.69-.73-10.4-.37-20.85,0-31.19.16-4.45-.54-18.78,2.37-21.62,2.68-2.61,11.27-1.81,8.89-7.4-1.12-2.64-7.86-1.06-9.7-3.01-1.15-1.22-.51-13.28-.59-15.97-.24-8.76-1.53-20.13-.45-28.74.07-.58.17-1.46.79-1.71l20.27-2.41v-6.72h-29.99c-.15,0-2.16-2.01-2.16-2.16v-26.15l29.49-1.94h23.56s26.62,1.46,26.62,1.46c.68,9.3.94,18.78-.43,28.02-8.34,2.37-18.59-1.42-26.47,2.91-2.98,1.64-1.81,3.15-1.42,6.02h15.84v45.11c-6.91.63-13.98,3.5-18.23,9.11,3.37,1.05,14.68,1.2,16.8,3.6.97,1.09.38,11.09.45,13.46,2.35,71.23-.18,143.56.48,214.99.07,8.02,1.49,16.92.51,24.94-.59,4.83-6.56,8.75-10.61,10.59,1.2,5.24,5.08,6.67,10.12,5.95l.47,4.57-.23,100.54c-.86,1.45-16.12,3.76-17.28-.48l-2.16,7.67c4.08-.97,7.82.78,11.73.98,4.35.23,8.87-.9,13.45-.49,1.45.13,5.46.73,5.91,2.24l.11,37.26c-.33,1.4-8.65.58-10.35.79-5.1.61-7.13,6.93-2.36,7.66,5.6.85,13.92.79,19.67.53,3.69-.17,8.6-2.27,11.98-.02,2.97,1.97,7.98,16.82,9.75,20.96.82,1.91,3.44,5.79,3.81,7.23.78,3.07-.65,6.62-.37,9.72,8.8.73,11.8-9.48,19.67-.23,7.2,8.46,9.65,26.83,20.39,31.44,8.17,3.51,19.05,3.04,26.17,9.58H0l15.48-5.4c2.63-1.18,5.77-2.25,8.19-3.8,7.5-4.8,12.94-17.7,22.64-17.7,5.67,0,6.57,4.59,11.18-2.7,2.19-3.45,3.5-10.44,5.59-12.64,2.45-2.59,11.91-4.75,12.87-6.81.33-.71.31-1.29.38-2.02.43-4.66-1.09-23.89,1.41-26.42.52-.53,2.81-1.02,3.66-1.14,7.16-1.06,26.42,1.63,31.07-1.08,2.42-1.41,4.38-6.16,1.41-7.03-3.37-.99-14.4,1.83-15.4-2.84-1.16-5.38-.72-14.8-.6-20.55.02-1.13.48-2.18.52-3.32.09-2.36-.5-11.89.57-13.1,6.76-2.24,14.15-.31,21.13-1.67,2.56-.5,5.45-2.65,3.74-5.44-2.58-4.21-13.33-.38-14.35-3.4-.73-7.48-.63-14.91.01-22.38.7-2.34,6.76-1.36,6.96-5.45.19-3.73-4.99-5.73-7.06-8.08v-40.55c17.14,10.5,39.03,3.97,53.75-7.68v85.42h-23.27c-1.02,0-6.36,6.75-1.82,8.06l29.41.58-24.01,78.47c-.33,3.2,3.41,5.95,5.82,7.62,4.79,3.32,10.43,5.25,15.81,7.32.53,10.83-4.02,20.97-7.7,30.88h10.8c4.88-10.96,10.23-22.96,9.35-35.27-.1-1.35-.45-5.15-1.56-5.67-2.83-.92-17.93-4.88-18.98-6.66-.27-.47-.12-1.02-.07-1.52,12.42-39.3,25.5-78.6,34.77-118.83,6.04-26.2,8.52-54,21.29-78-9.3-6.82-19.06-12.88-26.83-21.57-2.18-2.44-8.92-10.79-9.48-13.56-.63-3.07,2.66-10.42,3.85-13.68,5.11-13.92,10.87-29.97,17.22-43.24,7.74-16.17,9.9-13.65,25-19.62,6.85-2.71,10.97-7.18,16.19-12.12l-21.39,7.88c-12.93,1.28-15.54-5.39-9.7-15.94,1.56-2.82,5.85-7.67,6.16-10.64.59-5.78-6.67-14.1-4.81-20.88l14.39,4.32c-7.52-14.96-2.23-32.57,16.09-34.06,7.23-.59,26.92.95,32.15,6.23,4.29,4.33-1.18,5.16-1.25,8.87-.05,2.8,3.62,18.65,5.12,20.86.61.9,6.38,5.86,5.97,6.26l-4.84,1.77c-1.94,3.15-1.62,18.27-4.28,19.62-5.39-.58-10.36-5.61-15.88-2.85-.91,4.09-2.04,9.09-1.28,13.26,1.06,5.84,13.32,10.24,17.8,13.87,3.02,2.44,2.49,5.13,3.8,8.67,3.23,8.72,12.09,23,10.22,32.06-.71,3.43-3.72,6.18-4.1,10.29-1.17,12.88,10.58,32.13,15.91,44.06,6.71,15.01,20.71,42.65,19.05,58.57-.59,5.69-4.33,13.97-10.5,15.17-.3-.29,2.59-4.61,2.97-5.43,4.74-10.31,2.83-18.67-6.8-24.8l1.44,14.15c-.41.59-1.2-.8-1.33-1.07-3.86-7.81.27-13.23.31-20.09.03-4.93-11.97-18.39-14.9-23.86-1.18-2.19-6.16-15.07-6.16-16.88v-29.51c-2.86.85-4.22,1.83-5.06,4.78-4.72,16.68.71,34.91,3.47,51.28,6.89,40.82,8.33,82.32,8.77,123.68l1.97,66.63-23.05,4.86c-1.38.84-1.12,7.8-.96,9.58.87,9.4,7.01,13.47,13.96,18.67,8.83,6.6,10.08,4.74,19.4,7.95,1.48.51,5.87,3.38,6.22,3.38h59.26c.07-1.96-1.56-2.9-1.42-4.98.22-3.37,4.53-7.28,4.77-10.67.12-1.68-.84-4.15-.96-6.16-.29-4.69,1.02-9.01.91-13.63-7.68-1.85-16.36-2.12-23.82-4.73-6.36-2.23-5.41-3.58-3.35-9.38,12.47-35.12,22.01-68.54,30.37-104.96,7.1-30.97,14.26-62.6,14.63-94.54l-3.84-.48-13.92,67.66c-.95.25-.93-.39-1.35-.81-2.04-2.01-3.65-4.94-5.84-6.87l3.35,19.67c-.36.37-3.2-1.99-3.61-2.38-7.05-6.73-9.76-18.86-5.69-27.79,1.35-2.97,6.06-7.46,4.91-10.77-.52-1.5-10.82-3.26-12.86-3.7-.42-10.37,1.52-20.66,3.48-30.79,2.45-12.71,5.64-26.34,9.22-38.77s11.21-29.56,12.23-42.48c.31-3.98-.59-8.37.73-12.23,1.12-3.27,8.49-11.86,11.75-12.76,1.97-.55,4.04,2.16,6.11,2.58,1.71.35,3.66-.01,5.41.1-2.17-3.75-6.36-7.18-6.69-11.82-.49-7.08,10.04-13.01,14.36-17.44-12.8-.09-25.65,2.63-38.39.95-.46-.62,8.16-6.89,9.05-7.5,3.51-2.38,23.26-13.07,23.96-15.39,1-3.37-1.71-6.81-1.84-10-.12-3.03,1.02-5.84.29-9.36-1.03-4.96-7.2-10.32-7.95-15.81-8.97,1.23-16.53.45-24.79,4.72-1.28.66-3.68,2.63-4.73,2.95-1.93.6.94-3.23,1.22-3.58,2.06-2.59,5.22-4.9,7.43-7.44,4.76-5.48,12.33-18.24,20.14-19.21,3.95-.49,18.95,2.9,22.76,4.62,1.81.81,4.22,3.56,6.13,4.9,5.77,4.04,16.02,9.69,20.54,14.49,4.25,4.51,1.5,6.64.73,11.99,14.35-4.99,27.37-13.59,43.18-13.43-3.78,15.43-20.41,21.89-30.22,32.87,1.99,1.52,12.92,13.16,11.03,15.11-2.76.49-5.63.55-8.4.97-.64.1-.85-.31-.71.7l11.03,22.8-17.93-4.36-1.74,6.28c7.53-1.41,14.93,5.89,22.1,4.58,2.26-.41,4.77-2.18,7.05-2.54,5.1-.8,10.06,2.07,14.9,3.1,25.24,5.36,29.41-11.24,39.37-29.45.95-1.74,4.42-6.42,4.76-7.71.72-2.75-.88-6.38-1.79-9.01-2.57-7.41-6.79-14.49-9.61-21.82,6.53,1.71,9.66,7.81,12.26,13.45,2.3-.49,2.77-1.54,3.82-3.37,4.34-7.54,6.97-17.22,11.28-24.96.86-.11.44,1.04.35,1.55-.56,3.54-2.15,7.33-2.76,10.92,5.53-.17,6.71-4.82,9.36-8.63.53,3.16-.57,6.49-1.2,9.59,2.07-.22,3.77-1.01,5.27-2.39-1.16,8.83-3.92,18.91-7.89,26.89-1.64,3.3-8.54,12.41-8.74,15.15-.32,4.18,5.34,14.27,6.35,19.35,2.03,10.18-1.26,27.57-3.3,38.03-.59,3.01-1.76,10.84-3.27,13.05-1.74,2.54-11.01,4.15-14.16,4.55-18.41,2.35-35.14-2.13-52.96-5.69-.83,3.78,2.52,4.66,3.57,6.27,1.2,1.84,1.27,19.33,1.25,22.79-.05,12.14-1.02,24.24-.02,36.45,1.59,19.46,6.21,38.73,8.58,58.13,6.1,50.09,6.59,100.97,15.92,150.65-.11,3.83-10.6,6.44-13.76,6.87-1.33.18-2.69,0-4.02.06.69,4.18-1.23,15.07.74,18.22,4.43,7.06,14.01,7.31,20.47,10.72,4.2,2.21,4.5,4.76,10.27,5.56,14.67,2.03,30.88-2.41,45.78-.64,7.87-4.09,13.96-13.64,21.13-18.22,3.43-2.19,7.12-2.59,10.53-5.3,3.94-3.14,5.73-7.95,11.25-8.42,7.29-.62,19.1.02,26.41.98.55.07.98-.18.71.71-.88,2.86-5.76,7.26-8.2,9.07-9.46,7.01-22.31,10.01-29.22,20.44,6.84,1.48,12.35-.14,18.56-2.79,11.16-4.77,22.65-12.65,29.81-22.5.19-6.25,1.49-12.42,2.02-18.62,1.18-13.91,2.04-30.74,1.46-44.65-.14-3.38-.36-9.13-1.2-12.24-.95-3.5-3.63-6.59-4.94-9.93-4.87-12.36,1.26-18.55,2.7-30.18.56-4.52,1.13-12.88.56-17.24-.48-3.73-7.38-3.7-8.15-8.64-.72-4.6,1.29-14.91,2.12-19.9,5.45-32.86,21-74.93,18.96-107.24-1.09-17.23-8.19-33.89-7.22-51.37.65-11.76,6.15-23.13,7.7-34.77-9.01,8.67-14.24,20.66-15.37,33.09l-14.13,3.38c-.97.03,2.75-10.33,3.1-11.29,2.5-6.81,7.91-19.94,13.76-24.15,1.45-1.04,13.91-7.38,14.55-6.8,1.33,7.11,6.94,12.81,13.45,15.59,2.48,1.06,6.13,2.27,8.63,2.41l-4.64-4.26c-.23-.22-.1-.73-.16-.79-.09-.09-.83-.09-1.19-.47-4.24-4.34-6.22-9.49-8.37-15.08l10.44-5.16-.49-11.11c-1.37-4.53-12.42,2.21-14.95,3.11-.45.16-.55.71-1.04-.08-.78-1.28-1.75-8.81-2.08-10.88-1.35-8.64-2.39-17.31-2-26.07,9.94,2.49,17.73-3.31,26.81-5.82.46-6.74-2.65-4.13-6.39-3.75-5.88.6-12.76-.5-18.75-.02-1.62.17.02-2.82.34-3.51,9.51-20.24,33.62-35.41,51.02-13.77,12.14,15.09-.87,36.83,7.39,53.46l-15.32,12.28c2.47.42,5.02-.49,7.36-.44,1.18.03,9.32,1,8.94,2.58-4.06,5.43-9.63,9.37-15.2,13.12l-26.53,11.62ZM748.61,575.8l-21.11-20.62c4.4,8.87,7.8,24.71,21.11,20.62ZM222.28,579.75l-25.98,48.12c2.16,3.21,17.35,27.18,18.99,27.49,2.11.4,3.72-2.79,4.69-4.26,2.3-3.46,8.99-15.3,9.4-18.91.82-7.21-2.57-17.09-5.68-23.6-.86-1.81-4.31-6.85-4.39-8.1-.27-4.15,7.78-12.85,8.13-17.78.25-3.49-4.06-4.53-5.16-2.95ZM748.61,583.49c-2.27.55-5.83-1.26-7.47.45-1.96,5.18-1.13,11.29-2.26,16.93-1.53,7.6-8.21,20.02-5.85,27.23,1.05,3.19,3.93,5.39,2.88,9.15-.54,1.94-2.96,3.55-2.57,5.86.53,3.13,6.16,10.38,7.69,13.95,1.95,4.53,2.79,10.05,2.3,14.96-.66,6.65-5.65,7.61-9.31,12.28-7.31,9.33-2.77,16.52,4.28,23.95,1.46-5.12-1.57-13.61.62-18.1,1.68-3.44,7.74-6.25,11.06-7.89-.08-1.36.46-2.7.55-4.01,1.28-17.92,2.12-37.23,2.38-55.2.01-1.03.52-1.99.52-2.87,0-1.6-2.52-4.68-2.85-7.22-.57-4.38.31-9.13-.63-13.76-1.07-5.24-6.66-11.53-1.33-15.71ZM712.62,628.59l-46.96-3.3c-3.36,10.03,10.89,5.67,16.07,7.94l30.89-4.64ZM670.87,910.28h12.48c-.06-9.5-2.52-20.08-1.44-29.51.35-3.1,7.47-11.6,10.11-13.41,3.39-2.31,7.4-1.32,10.54-3.86,3.47-2.81,3.48-8.48,7.82-10.42,1.54-.69,14.59-3.26,15.17-2.76,1.28,5.96,3.27,11.76,4.6,17.72,1.23,5.55,4.17,17.4,1.69,22.34-.74,1.47-6.24,7.38-7.69,8.62-2.52,2.16-10.1,5.97-10.11,9.59,0,4.99,9.26,1.55,12.01.47,32.01-12.53,9.87-60.09,4.56-83.72-1.03-4.61-2.13-16.04-3.87-19.17-1.52-2.73-5.73-5.14-6.33-8.06-.74-3.58,1.16-7.52.72-11.29-1.25-10.71-11.28-21.02-9.96-32.51-1.19.13-1.79.82-3.1.97-3.76.44-20.24-.07-22.99-1.99-.51-.36-.85-.75-1.05-1.35-2.29-18.23-.72-36.67-.21-54.97.12-4.27.79-8.61.49-12.98-.62-9.1-3.62-18.91-4.58-28.06-.4-.01-.69,1.69-.72,2.16-1.14,15.68-1.24,31.34-1.9,47.05-.62,14.77-2.72,29.82-1.45,44.6.47,5.54,1.32,9.38,7.09,11.14,1.34.41,4.79.2,4.92,1.82-1.7,6.79-5.1,13.29-6.87,20.03-2.79,10.67,1.39,10.94,2.04,20.29,2.07,29.75-12.77,56.81-11.53,85.91.18,4.28,1.26,8.62,1,12.96-.17,2.84-1.25,5.55-1.46,8.38ZM194.89,873.39c-3.77,10.38-5.22,19.79.64,29.7.75,1.26,4.51,6.49,5.54,6.93,1.57.67,4.85-.29,6.97-.25,8.99.18,18.29,1.44,27.33.97,2.64-.14,7.34-.48,9.75-1.29,4.57-1.54,4.86-5.94,5.7-10.13,1.01-5.02,3.39-20.99,1.31-25-.18-.36-.81-1.1-1.14-1.22-.5-.18-8.77,1.83-10.42,2.06-15.57,2.16-30.29.62-45.69-1.77ZM405.26,910.28h53.27c.48-.3.62-.66.72-1.2,1.21-6.63-3.71-13.58-2.85-20.13.13-.98,1.12-1.87.87-2.8-.1-.37-1.97-2.32-2.35-2.49-1.54-.71-12.74,1.09-15.57,1.21-12.9.58-25.78-.53-38.6-1.41-3.27,9.32-2.78,19.6,4.51,26.82Z"/>
  <path d="M144.2,217.34c-.15-.04-1.54-1.45-2.46-1.86-1.53-.69-9.07-2.87-9.19-3.64,8.6-22.69,18.29-45.46,34.44-63.87l17.75,1.7c-1.05-2.27-2.17-4.46-3.84-6.34s-6.44-4.65-6.29-7.33c.1-1.76,7.25-9.88,8.92-11.77,2.51-2.85,21.61-22.92,23.22-23.26,1.49-.31,2.97,1.09,4.9-.45,1.52-1.21,3.79-8.53,5.73-11.06,3.48-4.52,23.22-20.86,28.28-23.07,5.48-2.39,6.38,2.26,9.37,5.55s5.71,4.68,10.32,4.79c-.98-4.83-4.88-8.02-7.59-11.84-.58-.81-2.79-3.67-2.27-4.48,18.45-11.8,38.57-22.08,58.83-30.46,5.9-2.44,12.29-5.09,18.33-7.1,3.44-1.15,10.26-3.66,13.63-3.67s6.29,8.52,9.97,7.6c3.43-.86-1.66-11.46-.68-12.43l52.3-8.16,7.2,46.55-44.79,7.24c-1.66-.38-5.3-16.35-7.11-18.92-1.52-2.15-3.03-1.42-5.2-2.23l1.9,17-8.04,11.3c-23.49,7.38-45.96,17.73-67.15,30.16-4.66.77-9.8-10.78-14.53-11.91-1.82,7.59,6.08,13.01,4.35,19.95-44.6,29.53-77.4,73.72-99.44,122.01l-11.39-.82c-2.24,6.28,4.84,9.8,7.52,14.48-3.15,13.6-9.01,28.38-9.97,42.34-.23,3.32.83,10.52-1.03,12.89-3.29,4.18-14.8,1.26-12.91,9.63l25.72,2.64c.44,3.22,1.33,6.11,1.19,9.41-.09,2.05-.88,3.89-.97,5.74-.23,4.55.47,9.19-.49,13.67h-31.91c-1.29,1.95-3.14,3.92-1.16,5.96,4.07,4.22,23.02,1.68,23.5,3.45l-.53,14.8c-.89,8.47,1.27,19.69,0,27.83-.46,2.9-4.07,3.67-5.3,5.78-.54,5.13,5.45,4.48,6.19,7.78-.44,8.22.94,17.75.1,25.81-.51,4.94-5.7,3.36-7.31,8.05s3.5,5.93,6.83,7.31v73.66c-15.03-12.15-30.74-22.35-48.14-30.8-1.27-.62-5.89-2.05-6.24-2.9-.97-4.85.22-9.68.18-14.55-.16-19.71-2.88-42.91-.49-62.36.36-2.94.9-5.78,3.66-7.38,1.7-.99,4.32-.61,4.47-3.22.32-5.3-6.91-5.37-7.61-11.06-1.05-8.63-.44-28.14.97-36.83.13-.83.34-2.56.67-3.17,1.69-3.16,13.34,1.81,16.17-3.99.31-.63,1.14-3.9.86-4.18l-28.31-1.92v-23.75c0-.18.62-3.45.71-3.61.55-.97,6.2-1.38,7.66-1.45,5.48-.29,10.88.72,16.36.52,3.27-.12,6.97-.95,10.3-.98-2.6-10.26-14.73-4.48-19.88-12.03-5.96-8.72,2-27.93,2.61-37.88l7.19,1.92c-4.66-12.27-3.87-25.55,3.31-36.64l.75-.35c4.05.49,9.11-.53,13.01,0,.86.11.52.55.91,1.01l8.89-4.8c-1.87-.34-5.34.46-6.96,0Z"/>
  <path d="M573.92,19.17l-.94,5.72c3.81,2.95,8.25-3.23,9.8-3.31,2.03-.1,12.38,5.16,14.53,6.59,4.27,2.83,6.32,4.48,3.49,9.7.65.54,8.87-4.59,10.68-3.75,19.1,8.64,38.82,16.86,55.02,30.46l-6.68,17.44c6.27,2.28,7.8-4.15,11.05-7.9,2.13-2.46,3.42-4.36,6.73-2.91,6.95,3.04,22.38,17,28.78,22.57,4.95,4.31,38.97,35.6,38.33,39.29l-16.74,18.06,25.36-7.13c13.41,22.28,28.81,43.96,36.09,69.28l-.49.97c-4.56,1.19-10.46,2.5-10.08,8.39,1.99-.09,14.28-1.59,14.93-.67,5.44,16.34,9.87,33,12.75,50.01.9,5.33,2.3,11.81,2.57,17.1s.55,8.24-5.18,9.25c-8.31,1.48-26.36.95-34.85-.41-1.46-.23-4.89-.8-5.81-1.87l-13.65-53.05,20.6-20.84-24.95,9.59c-7.41-19.23-17.14-37.55-28.7-54.59-.14-.42-.18-.85-.12-1.29.18-1.3,7.3-6.99,8.81-8.51.42-.42,1.05-.41.8-1.35-1.9-.09-4.12-1-5.97-.98-6.1.08-8.42,4.1-13.69-1.68-6.07-6.66-10.33-13.09-17.28-19.67-12.78-12.09-27.05-22.64-40.83-33.55-2.55-3.49,4.88-12.73,5.1-17.04.06-1.14-1.83-2.01-2.87-1.94-4.34.29-7.54,9.66-11.47,11.45-22.95-13.48-46.68-25.83-71.84-34.72-2.45-2.41,2.53-15.08,2.89-18.73s-.5-6.86-.48-10.31l-11.79,26.35c-16.6-5.68-34.53-6.79-50.84-13.39-.49-.82-.27-2.99-.17-4.03.7-7.52,3.56-18.21,5.45-25.74.7-2.8,3.39-15.04,5.52-16.07,4.3-.8,8.77.53,12.97,1.44,14.56,3.16,28.59,8.68,43.17,11.78Z"/>
  <path d="M165.03,612.32c-.24-.26-1.98.12-2.16-2-27.68-.86-53.11-7.94-65.54-34.67-8.75-18.83-18.52-48.61-22.71-68.94-.73-3.56-3.5-17.6.24-19.45s17.5,3.57,21.72,5.17c37.83,14.3,69.95,41.63,96.26,71.72-5.87,17.08-14.86,32.9-20.92,49.93-1.48,4.15-4.71,12.43-3.85,16.57,1.28,6.16,10.97,12.49,14.69,17.45-7.47,14.96-19.7,30.91-34.33,39.43-29.16,16.98-50.72-4.37-41.18-35.42,7.72-25.13,32.96-31.17,55.71-36.43,1.16-.16,2.86-2.5,2.08-3.35ZM166.88,560.81c.78-.79.64-2.17.24-3.11-1.16-2.74-15.54-11.62-18.88-13.76-20.38-13.07-42.09-25.17-64.93-33.33l-1.66,3.71,83.68,47.05c.44.02,1.25-.24,1.56-.55ZM164.36,580.12c2.62.5,6.57-.36,9.36,0l-6.86-3.45c-7.45-5.53-16.51-8.99-25.17-12.26-14.54-5.49-29.59-9.53-44.47-14l-1.52,3.82c15.36,8,32.28,11.93,48.52,17.72,5.02,1.79,16.1,7.4,20.15,8.17ZM163.59,590.25l-52.43-11.04c-1.46.48-1.28,5.73,1.11,5.97,13.49,2.94,26.7,7.16,40.32,9.59,2.07.37,9.63,1.92,11.06,1.48,2.01-.62,3.32-5.05-.02-4.12l-.04-1.88ZM155.96,632.91c-17.66,8.08-35.26,17.21-49.42,30.7,7.92-.54,13.77-3.94,20.48-7.59,5.56-3.02,11.58-6.55,16.91-9.96,5.04-3.23,12.23-6.39,12.04-13.15ZM131.01,683.3c7.43-8.06,16.52-14.41,24.48-21.83,1.18-1.1,5.7-5.25,6.26-6.22,1.09-1.9.25-4.5-.03-6.5-9.19,7.3-19.28,14.72-27.11,23.51-.94,1.05-3.96,4.35-4.25,5.38-.58,2.03.78,3.6.66,5.66Z"/>
  <path d="M645.91,570.53c-2.45,20.44,11,39.66,6.1,60.08-2.04,8.49-7.38,19.32-12.42,26.45-1.75,2.48-7.22,8.01-7.84,10.39-.48,1.82-.31,5.02-.25,6.99.17,5.03,1.24,8.39.29,13.68-1.46,8.07-4.61,13.44-13.22,14.86l16.73,6.77-1.65,5.23-15.05-2.86c-2.78,10.09-5.85,20.12-9.02,30.09-10.34,32.44-20.55,65.17-31.79,97.3-3.94,11.25-8.07,23.28-12.88,34.15-1.9,4.29-3.89,8.94-6.8,12.63,11.71-61.01,31.69-119.95,45.59-180.43l-16.77-4.84,1.16-4.25,21.84,6.2c-.47-1.81-.76-3.72-1.5-5.45-1.18-2.78-4.17-5.29-4.89-8.07-2.34-9.02,6.16-16.66,10.14-23.76,6.53-11.65,5.67-25.24,9.25-37.78.8-2.81,3.6-11.07,5.01-13.22.15-.23.52-.64.7-.49.57,4.1,3.39,5.86,6.72,7.68-1.14-17.18,2.95-33.79,5.74-50.56l4.82-.78Z"/>
  <path d="M504.83,3.31l-7.18,54.99c-4.08-.47-8.08-2.24-12.26-2.24-9.11.01-19.46,4.34-28.58,2.23-1.94-.45-3.63-1.7-5.49-1.75-6.09-.18-14.28,1.6-20.64,1.96-1.67.09-3.37-.05-5.04,0l-8.66-56.41c5.99-.53,12.02-1.32,18.02-1.66,14.17-.79,29.48-.43,43.66.48,8.73.56,17.42,1.96,26.16,2.39Z"/>
</svg>