<?xml version="1.0" encoding="UTF-8"?>
<svg id="Layer_1" data-name="Layer 1" xmlns="http://www.w3.org/2000/svg" viewBox="0 0 469.87 132.62">
  <path d="M217.3,35.15c-.76-3.21-2.84-5.93-4.5-8.68-.25-1.24.91-1.73,2.21-2.38,5.39-2.35,11.72-4.48,17.51-6.51,3.22-1.26,5.88-3.69,9.43-3.91,3.06-.17,6.03-.11,9.05.2,3.37.3,6.41,3.2,9.8,2.53,8.29-3.96,5.42-18.22,18.33-16.21,2.41.1,4.66,1.21,4.72,3.89.41,3.36,1.98,8.12.06,11.2-3.81,4.09-4.18,6.47-1.23,11.2,1.62.75-1.95,14.5-3.3,12.67-1.92-3.41-1.59-14.33-7.28-12.85-2.57,1.43,1.41,8.15,1.53,10.82,1.49,3.86,1.44,9.03,4.82,11.68,4.39,1.76,5.17-4.39,6.04-7.41.57-1.02,1.22-6.84,2.3-4.54,1.23,5.9,5.65,12.46,2.34,18.58-2.96,8.28-11.49,11.14-18.66,15.22-3.98,2.2-7.12,5.47-10.47,8.35-2.54,1.99-3.51.53-2.71-2.43,1.06-3.74-1.51-6.69-5.37-6.71-1.61-.11-3.05,0-3.54,1.43-.46,3.35-.23,7.77-.13,11.21.75,3.9,2.9,1.31,3.61-1.11.7-1.49,1.77.6,1.87,1.7.22,5.17-17.27,19-21.93,22.25-6.08,3.25-12.57,7.86-19.67,7.29-2.79-.31-2.27-1.12-.39-2.57,3.13-2.18,2.44-5.86-1.37-6.48-3.92-.62-7.93.58-11.85.86-4.86.57-9.97.74-14.18,3.06-2.87,1.56-5.58,3.59-8.68,4.65-13.35,4.08-27.12,7.32-38.88,14.83-18.22,13.07-19.44.89-5.61-10.51,4.38-2.42,6.13.13,9.89-5.2,8.4-9.49,17.83-25.13,32.2-23.45,3.04.31,7.16.46,9.23-1.95,1.62-1.95-.76-3.73-1.72-5.35-.97-1.93-.05-3.65-.03-5.92.21-4.58-3.22-4.25-6.31-5.38-4.6-3.78,6.83-7.98,4.95-12.21-.74-1.65-3.8-2.44-6.23-2.37-5.29-1.27-15.81,13.24-16.93,5.53-1.34-6.76,6.74-11.76,12.33-14.28,1.75.11,2.21,4.38,4.81,3.36,2.44-.98,1.38-4.6,2.28-6.5.35-.72.95-1.13,1.68-1.51,3.02-1.49,10.34-4.98,14.1-6.79.61-.31,1.78-.77,2.18-.77.45,0,.4.54.25,1.69-.42,2.33-.24,5.18.62,7.18,6.2,14.18,24.76,7.44,22.87-7.26l-.03-.14ZM234.05,26.78c-.45-.68-1.38-.75-2.18-.77-2.55,0-7.28-.02-9.35,0-.65.05-1.43-.04-1.74.58-.31,1.11-.08,2.46-.15,4.86,0,5.28,0,13.38,0,16.51.01.4.04.82.23,1.13.52.74,1.69.81,2.5.39,2.59-1.4-.35-7.83,2.32-9.02,1.94-.81,6.87.9,7.49-2.17.61-4.86-5.23-2.65-7.62-3.56-1.32-.95-1.29-3.73.5-4.18,2.52-.75,9.46,1.15,8.05-3.69l-.06-.09ZM254.68,50.19c5.37,1.14,12.14-1.28,13.68-6.84.43-1.84,1.18-3.88,1.19-5.9-.24-2.5-.98-4.88-2.04-7.07-.54-.9-1.1-1.4-1.76-2.13-1.3-1.45-2.29-2.18-4.59-2.2-2.69.09-6.33-.39-8.96.37-1.27.49-2.1,1.43-3.05,2.5-3.66,3.73-3.88,10.46-2.07,15.19,1.48,2.83,4.31,5.53,7.46,6.07l.15.02ZM193.76,70.15c-1.88-.6-6.1-.84-7.33.67-.98,3.08-.24,7.29-.46,10.62,0,2.16-.04,3.08,1.38,3.26,1.66.17,3.61.11,5.27.06,1.09-.07,1.89-.32,2.26-.76,1.24-2.28-3.51-2.14-4.46-3-.68-.41-.2-1.01.37-1.25,3.86-1.51,4.1-2.53.15-4.22-.59-.26-1.18-.87-.45-1.33.83-.69,3.11-.86,3.9-1.64.74-.71.47-1.97-.5-2.36l-.12-.06ZM198.16,84.41c2.17,1.62,3.13-1.93,4.71-2.7.84-.43,2.03-.35,2.8.13.73.47.97,1.33,1.47,1.98,1.13,1.65,3.92,1.4,3.69-.9-.69-2.57-1.59-4.89-2.47-7.57-.91-1.78-1.44-4.01-3.05-5.25-2.71-1.39-4.49,2.25-4.87,4.47-.78,2.49-2.5,4.88-2.82,7.68-.1.72-.02,1.55.46,2.06l.09.09ZM217.59,70.09c-2.39-1.05-3.22.97-3.11,3.02-.04,2.3-.03,6.56,0,9.04.02.87.16,1.93.86,2.42,1.29.79,2.14-.83,2.28-2.07.22-.94-.12-3.02.32-3.56.33.07.57,1.05.72,1.37.65,1.77,1.39,4.44,3.7,4.25,2.29-.23,2.5-4.34,3.8-5.66.14,0,.2.36.26,1.04.03,1.59.07,5.48,2.44,4.72,1.65-1.17.74-4.91.96-7.16-.16-2.4.38-4.85-.35-7.08-.59-1.29-2.45-.65-3.41.42-.78.9-1.19,2.05-1.71,3.11-1.16,2.28-1.84,4.96-3.13,2.6-1.3-1.85-1.6-5.02-3.51-6.39l-.11-.06ZM241.95,69.99c-1.76-.63-4.52-.4-6.05-.19-.88.16-1.36.8-1.42,1.71-.14,3.01-.03,8.31-.05,11.11-.06,1.48.41,2.2,2.04,2.18,1.51.02,4.14.14,5.59-.14,1.51-.25,2.03-1.45.87-2.22-1.35-.94-7.18-1.23-2.85-3.07,3.78-1.4,1.98-2.74-.68-3.86-.92-.43-1.12-1.06-.12-1.54.99-.57,2.86-.7,3.58-1.55.74-.81.18-1.98-.76-2.37l-.14-.07Z"/>
  <path d="M303.54,39.54c-1.43,1.86-4.86,3.99-6.52,4.78-.65.25-1.05.06-.94-.8.62-3.51,2.15-6.65,2.85-10.26.64-1.91.77-4.15,1.86-5.87.29-.37.67-.65,1.09-.88,1.39-.78,3.31-.75,4.83-1.83,1.94-1.38,3.06-3.86,4.74-5.54,1.66-1.77,3.81-2.75,6.1-3.45,5.22-1.79,11.56-1.42,16.41-4.56,2.67-1.71,4.1-5.5,6.84-6.84,3.01-1.43,6.76,1.08,8.18,3.92,2.96,6.56-11.88,9.14-15.56,12.22-2.95,1.94-5.74,4.33-9.08,5.58-2.26.96-3.73,3.01-5.72,4.49-2.09,1.4-4.86,3.12-6.97,4.09-.98.46-1.77.78-2.33.64-1.02-.24-1.58-2.14-.71-3.4,1.75-2.62,9.32.63,8.62-4.28-.39-1.17-1.79-1.37-2.91-1.41-2.2-.03-5.59-.03-7.55,0-1.95-.04-2.7.68-2.65,2.72-.26,3.09.52,7.79-.51,10.55l-.07.12Z"/>
  <path d="M324.87,49.27c-1.89.51-2.87-1.53-2.7-3.31-.01-3.61,0-11.22.01-14.67-.31-2.53,2.11-5.32,4.61-4.34,1.14.59,1.56,1.94,2.24,3.05.73,1.13,1.45,2.37,2.17,3.48,1.55,2.34,2.97,5.33,4.82,7.37.5.5.8.1.87-.4.39-1.91-.1-9.84.27-12.93.32-1.72,2.5-1.83,3.55-1.16.83.52.61,1.85.65,3.98,0,3.03,0,6.6,0,9.87,0,1.5,0,2.97,0,4.44-.05,2.57.25,4.06-.89,4.59-1.55.77-3.44-.31-4.5-1.42-1.27-1.59-2.46-3.31-3.39-5.18-1.52-2.49-3.12-4.97-4.64-7.48-.89-1.27-1.99-2.79-2.14-.09-.1,2.78,0,8.84-.05,11.88-.02.79-.1,1.89-.81,2.27l-.08.04Z"/>
  <path d="M443.29,26.61c1.31.96,2.7,2.62,3.78,3.99.88,1.36,1.44,3,1.8,4.61.51,2.11.13,3.94-.39,5.96-.48,3.61-3.39,7.11-6.72,8.13-3.89,1.19-8.61.94-11.54-2.14-1.39-1.51-3.01-2.65-3.48-4.81-.96-4.13-.73-9.66,2.53-12.7,1.59-1.86,2.66-3.51,5.62-3.61,2.53.04,6.08-.44,8.29.51l.11.06ZM444.63,40.76c1.02-3.39.07-7.15-2.42-9.62-1.68-1.53-4.7-1.62-6.8-1.09-2.71.8-4.58,3.22-4.71,6.12-.32,2.48-.04,5.3,1.65,7.17,1.72,2.87,6.26,3.42,9.09,1.75,1.45-1.05,2.48-2.65,3.14-4.2l.04-.14Z"/>
  <path d="M464.81,26.48c3.34,2.75,4.1,7.47,1.16,10.81-2.04,2.84.94,5.44,2.42,7.76.63,1.03,1.64,2.1,1.46,3.3-.7,1.84-3.39,1.04-4.36-.21-2.04-2.58-3.18-6.38-6.39-7.78-.88-.33-1.78-.37-2.24.6-1.16,1.51,1.06,9.66-3.04,8.09-.96-.51-1.25-2.06-1.2-3.23.22-5.89-.09-12.15.1-18.08.52-2.76,4.16-1.64,7.1-1.89,1.51,0,3.83-.06,4.9.57l.12.06ZM461.82,29.96c-1.26-.31-2.96-.04-4.24-.04-.32.03-.68.1-.78.46-.2,1.49-.03,3.4-.08,4.91,0,.64-.01,1.02.21,1.18.53.28,1.76.11,2.48.15,1.56.02,2.13,0,2.63-.8.76-.81,1.4-1.45,1.33-2.91.14-1.26.11-2.54-1.37-2.9l-.17-.05Z"/>
  <path d="M141.04,26.54c2.23,1.81,3.98,5.28,2.73,8.15-.44,1.47-1.9,2.27-2.51,3.59-.67,1.51.56,2.8,1.51,4.27,1.04,1.64,2.39,3.11,2.84,5.03.16,1.1-.89,1.9-1.93,1.71-1.92-.29-2.84-2.15-3.82-3.59-1.18-1.68-2.02-4.03-4.24-5.07-1.04-.55-2.43-.79-2.99.52-.89,1.56.19,5.71-.99,7.5-.62.92-1.6.84-2.13.28-.38-.4-.42-1.04-.42-1.63.12-4.46-.23-16.72.14-20.69.51-.98,1.41-.69,2.77-.8,2.4.13,6.84-.46,8.9.65l.12.07ZM138.63,30.09c-.56-.36-1.81-.15-2.64-.2-.9.04-2.59-.12-3.19.19-.58.38-.33,1.87-.39,2.63.09,1.1-.23,2.72.26,3.59.73.53,2.17.23,3.19.31,1.01,0,1.75-.04,2.39-.78,1.4-1.26,1.57-4.27.47-5.65l-.09-.08Z"/>
  <path d="M382.75,26.44c.62.47,1.07,1.2,1.35,1.95.71,1.99,1.6,4.12,2.37,6.26,1.19,2.42,1.99,4.87,2.99,7.35.59,1.8,3.44,5.93,1.33,7.21-.79.58-2.44-.04-3.1-.81-1.07-1.28-1.19-3.35-2.89-4.08-1.82-.69-5.68-.81-7.82.18-1.25.7-1.51,2.19-2.19,3.35-.61,1.19-2.69,2.15-3.63,1.29-1.1-1.02.05-2.64.34-3.94.75-2.4,1.95-4.14,2.77-6.74,1.7-2.97,3.51-14.68,8.37-12.1l.11.08ZM378.94,39.38c.7.55,2.2.17,3.14.28,2.24.31,2.09-1.36,1.11-2.69-.54-.55-.42-1.93-.92-2.28-.24-.19-.5-.24-.6-.66-.17-.52.01-1.72-.69-1.81-.43.11-.54,1.37-.93,2.17-.65,1.48-1.67,3.3-1.17,4.89l.06.1Z"/>
  <path d="M20.77,26.16c3.25-.25,1.82,5.48,2.27,7.48.08,1.44.72,2.04,2.24,1.85,2.08-.3,5.76.08,7.19-.02.62-.1.92-.56,1.08-1.16.63-2.13-.15-5.05.71-7.05.58-1.07,2.09-1.62,3.11-.9.98.62.39,4.72.54,6.61,0,3.96,0,8.4,0,12.17-.05,2.01.18,3.37-.4,3.98-.71.75-2.66.7-3.43-.58-.99-2.31-.06-5.84-.69-8.3-.28-1.02-1.33-1.14-2.25-1.18-1.8-.03-4.4-.09-6.19.04-1.71.14-1.89,1.19-1.91,3.1-.12,1.85.27,4.7-.5,6.31-.9,1.73-2.75.96-2.61-.85-.03-3.37,0-11.81-.01-16.95.09-2.54-.33-3.98.78-4.51l.08-.03Z"/>
  <path d="M71.23,45.76c1.4-.95,4.7.79,6.88.04,2.47-.44,3.23-3.08,1.12-4.75-.68-.59-1.58-.97-2.42-1.41-2.2-1.23-4.56-2.8-5.71-5.01-1.64-3.12.41-7.66,3.71-8.5,1.27-.31,2.72-.19,4.14-.18,1.82.07,4.55-.1,5.3,1.61.39.91-.04,1.88-1.06,2.2-1.43.45-3.72-.19-5.3.17-1.54.26-3.08.88-2.87,2.49.19,1.23,1.43,1.95,2.41,2.56,2.5,1.6,5.24,2.95,7.03,5.39,1.65,2.72.52,7.34-2.37,8.52-1.17.75-3.84,1.11-5.75,1.14-1.52-.13-3.18-.16-4.46-.83-.98-.59-1.8-2.37-.74-3.35l.08-.07Z"/>
  <path d="M102.84,26.92c1.55,4.53-6.08,2.11-8.01,3.51-1.22.77-1.14,3.3-.52,4.35.91,1.25,2.8.55,4.15.66,2.18-.24,4.97,1.86,2,3.21-1.35.54-3.24.23-4.66.54-2.14.33-2.13,2.83-1.83,4.75.09.44.24.87.51,1.2,1.78,1.53,4.91.36,6.99,1.08,2.31.67,1.81,2.99-.6,3.23-1.14.15-2.79.09-4.49.1-2.21-.1-4.14.26-5.76-.29-.46-.29-.46-.79-.49-1.35.07-4.23-.2-17.12.11-21.09.32-.89,1.46-.7,2.27-.77,2.02-.01,5.78-.02,7.99,0,.82.02,1.78.1,2.29.76l.07.09Z"/>
  <path d="M162.2,26.93c1.63,4.19-5.44,2.43-7.48,3.22-1.77.48-1.66,3.43-.94,4.64.98,1.2,2.85.46,4.21.63,2.06-.15,4.81,1.97,1.95,3.22-1.34.5-3.24.26-4.66.54-1.91.27-2.12,2.21-1.96,4.19.06.61.19,1.25.58,1.72,1.79,1.57,4.97.4,7.08,1.12,2.31.71,1.38,2.99-.94,3.22-1.15.17-2.81.1-4.5.11-2.19-.11-4.03.29-5.58-.33-.39-.29-.4-.8-.43-1.3.07-4.23-.2-17.12.11-21.09.33-.9,1.49-.69,2.31-.77,1.99-.01,5.63-.02,7.8,0,.84.02,1.83.12,2.36.78l.07.09Z"/>
  <path d="M114.78,49.75c-3.18-.4-5.71-2.82-7.34-5.48-1.62-3.49-1.64-8.36-.22-11.87.94-2.34,2.78-4.02,4.84-5.36,2.29-1.43,5.84-1.02,8.38-.97,1.63.04,3.19-.1,3.84,1.28.5.88,0,2.18-1.09,2.51-1.19.33-2.37.01-3.72,0-4.69-.49-8.81,1.86-8.98,6.79-.76,7.68,4.36,10.43,11.25,9.07,3.51-.4,3.15,2.96.51,3.5-2.16.67-5.02.97-7.32.55l-.16-.02Z"/>
  <path d="M208.53,30.69c1.86.65,3.03,2.52,3.71,4.27,1.96,6.08-2.66,12.45-9.23,10.16-8.15-4.47-4.42-17.26,5.37-14.48l.15.05Z"/>
  <path d="M56.03,26.92c1.6,4.27-5.64,2.38-7.59,3.31-.19.08-.35.17-.5.28-1.03.77-1.01,2.97-.52,4.08.33.8,1.16.96,1.97.93,1.45-.02,3.2-.31,4.59.14,1.87.58,2.31,2.39.38,3.05-1.01.36-2.49.26-3.64.3-1.03.06-2.07.1-2.83.77-1.07,1-1.15,3.81-.21,5.2,2.02,2.24,7.75-.66,8.55,2.87-.44,2.5-4.18,1.48-6.49,1.69-1.78-.18-5.34.58-5.6-.96-.1-4.57-.21-17.41.05-21.76.33-.9,1.49-.7,2.31-.77,1.85-.01,5.12-.02,7.14,0,.83.02,1.8.1,2.32.76l.07.09Z"/>
  <path d="M371.65,26.79c.37.76.18,1.8-.5,2.36-1.26,1.24-4.09.17-5.23,1.3-.57,1.18-.19,2.51-.3,4.83,0,1.45,0,3.1,0,4.72,0,1.55,0,3.09,0,4.61-.11,2.6.39,4.04-.94,4.65-1.08.4-2.99.39-3.33-.97-.31-3.56,0-12.23-.14-16.88-.1-2.69-4.26-.7-5.61-2.35-1.28-1.39-.3-3.29,1.58-3.06,3.16,0,10.31-.03,12.99.01.61.03,1.13.17,1.42.68l.05.09Z"/>
  <path d="M16.38,26.81c.37.76.18,1.8-.5,2.36-1.26,1.23-4.09.17-5.24,1.3-.55,1.09-.2,2.24-.3,4.31,0,1.4,0,3.02,0,4.64,0,1.97,0,3.93,0,5.88-.03,2.23.19,3.5-.92,3.93-.94.37-2.41.51-3.13-.28-.24-.31-.29-.73-.31-1.15-.05-3.16.02-12.15-.03-16.27-.02-2.75-3.96-.86-5.33-2.46-1.35-1.38-.33-3.28,1.55-3.05,3.18,0,10.34-.04,12.88.03.54.04,1.02.21,1.28.67l.05.09Z"/>
  <path d="M394.52,26.62c1.97,1.34,2.41,4.45,3.72,6.36.42.63,1.02,1.43,1.8,1.46.74.09,1.47-.73,2.02-1.76.73-1.35,1.59-2.54,2.42-3.8.69-1.59,2.92-3.4,4.45-2.54.82.41.49,1.36.16,1.92-.74,1.3-1.43,2.73-2.09,4.05-1.21,2.32-2.47,4.98-3.9,7.1-.22.37-.41.75-.56,1.16-.89,2.08-.33,5.15-.74,7.34-.7,3.33-3.84,1.13-3.76-1.39.23-3.91-.95-7.19-2.67-10.39-.89-1.81-2.16-3.31-2.96-5.14-.52-1.21-1.31-2.45-1.28-3.71.08-.34.04-.37.34-.71.62-.66,1.86-.67,2.91-.02l.14.09Z"/>
  <path d="M181.43,26.59c.8,2.02-1.12,3.29-3.12,3.21-2.34.05-3.22.6-3.15,3.04-.23,2.52.56,7.6-.76,9.32-.54.68-1.32,1.18-2.07,1.59-1.19.65-1.28.05-1.31-2.37-.1-3.08.23-7.51-.18-10.3-.82-2.24-4.78-.4-5.94-2.46-.84-1.28-.02-3.02,1.59-2.85,2.98-.03,10.21-.01,13.19,0,.68,0,1.41.11,1.7.72l.05.1Z"/>
  <path d="M414.98,26.29c.46.23.67.71.71,1.25.14,3.55-.15,13.47.13,17.2.35,2.16,6.22.72,7.92,1.5,2.22.84,1.29,3.33-1.04,3.3-2.12.1-5.07.04-7.15.04-1.95-.06-3.09,0-3.02-1.93-.03-3.69-.01-15.71-.01-19.77-.18-1.39,1.18-2.16,2.38-1.63l.09.04Z"/>
  <path d="M308.53,80.37c-.34,1-.95,1.68-1.5,2.62-.37.63-.81,1.13-1.54,1.41-2.5.67-6.76.89-8.16-1.35-1.13-1.14-1.81-2.48-1.82-4.17-.13-2.73-.13-5,1.8-6.65,1.74-2.4,5.84-2.66,8.39-1.11.88.82,1.94,1.69,2.57,2.73.93,1.84.9,4.39.31,6.38l-.05.14ZM302.8,72.62c-2.78-.35-5.15,2.42-4.86,5.12.4,1.97.81,3.87,2.92,4.48,1.14.18,3.19.28,4.13-.62.71-1.11,1.16-2.53,1.62-3.81.19-.99-.46-1.74-.86-2.5-.52-1.22-1.33-2.53-2.79-2.66l-.15-.02Z"/>
  <path d="M162.38,70.58c1.73.68,3.9,2.2,4.37,4.06.66,2.58.7,5.94-1.33,7.9-1.41,1.41-2.41,2.18-5.3,2.26-1.35-.13-3.55.36-4.47-.46-.58-2.22-.08-5.78-.24-9.2.11-2.17-.29-3.11.49-4.3,1.24-.88,4.53-.79,6.35-.29l.14.05ZM162.37,73.31c-.41-.25-1.16-.28-2-.27-1.03.09-1.9-.16-2.37.57-.31,1.99-.13,5.81-.09,7.63.06.52.37.75.91.83,1.76.43,3.23-.44,4.39-1.62,1.17-1.18,1.8-2.98,1.06-4.67-.23-.55-.67-.85-1-1.37-.24-.4-.4-.79-.78-1.02l-.11-.07Z"/>
  <path d="M315.98,38.27c-1.95,1.72-6.07-.43-7.81,1.72-.54,1.01-.51,3.23-.18,4.51.24,1.02,1.12,1.36,2.14,1.41,2.06.28,8.23-.88,6.69,2.84-.87,1.3-4.1.7-5.87.83-1.93-.2-4.38.59-5.79-.91-.69-1.06-.37-3.48-.38-5.56.03-1.22.15-2.51.72-3.58,1.87-2.85,5.88-4.49,9.31-3.95,1.2.26,2.14,1.6,1.26,2.59l-.08.09Z"/>
  <path d="M319.8,70.42c2.18.83,3.39,3.14,2.64,5.4-.27,1.06-.72,2.17-.57,3.27.11,1.43,1.21,2.3,1.81,3.48.87,1.67-1.41,2.65-2.53,1.49-1.34-1.11-1.73-3.88-3.54-4.31-1.58.04-1.05,3.12-1.86,4.14-.3.53-.72.94-1.24.6-.64-.48-.7-1.59-.71-2.4,0-2.86-.03-7.93.02-10.19-.04-2.68,3.62-1.93,5.83-1.52l.15.05ZM319.7,73.06c-.58-.06-1.81.05-2.49.05-.41.01-.59.05-.69.3-.21.58-.21,2.51.12,2.72.65.19,2.57.25,3,.25.21-.03.12-.49.14-1.24-.02-.57.05-1.6-.03-2.04l-.04-.04Z"/>
  <path d="M130.36,84.43c-.93-.95.12-2.43.79-3.78,1.57-3.2,2.08-6.83,4.02-9.78,2.17-2.3,3.74,1.3,4.41,3.16,1.36,2.59,2.31,5.79,3.2,8.45.55,1.31-.27,2.95-1.89,1.94-1.12-.8-1.47-2.3-2.7-3.01-.76-.52-1.8-.64-2.69-.31-.9.27-1.52,1.23-1.95,2.05-.68,1.28-2.04,2.31-3.11,1.36l-.09-.08ZM137.36,75.87c-.45-.11-.6.26-.86.49-.18.2-.49.23-.77.33-.65.17-.51,1.49-.27,1.92.21.37.57-.32.79-.31.21,0,.42.52.71.46.89-.29.48-2.13.47-2.81l-.06-.08Z"/>
  <path d="M278.06,70.91c.44.4.27.98-.16,1.3-.98.83-2.84.53-3.84,1.03-1,.41-.72,1.43,0,1.94,1.89,1.42,4.7,2.3,4.95,5.08.16,3.1-1.57,4.53-4.91,4.55-1.27.07-3.21-.02-3.82-1.08-.44-.74-.02-1.69.56-2,1.14-.55,3.02.69,4.11-.24,1.44-1.48-1.4-2.87-2.48-3.54-2.71-1.22-3.34-5.73-.35-7.1,1.45-.58,4.52-1.11,5.85-.02l.09.08Z"/>
  <path d="M285.62,73.5c-.83-.66-3.49-.52-3.25-2.15,1.25-2.07,5.23-1.08,7.44-1.21,1.04.06,2.53.22,3.17.79.45.41.55.89.09,1.36-.96.9-3.12.55-3.47,2.15-.46,2.79.21,6.59-.32,9.47-.52,1.32-2.69,1.11-2.92-.28-.23-2.43-.03-5.3-.1-7.71,0-1.18-.05-1.96-.56-2.36l-.09-.07Z"/>
  <path d="M330.15,80.21c-.79-2.03-1.72-3.88-2.74-5.9-.65-.92-1.91-3.59-.51-3.89,2.32-.19,3.26,2.68,4.48,4.14.87.89,1.72-.38,2.07-1.14.51-1.03,1.32-2.56,2.47-2.86,2.32.3.52,3.61-.18,4.8-.99,1.88-1.95,3.16-2.19,5.6-.07.72-.11,1.49-.26,2.19-.13,1.01-1.07,2.75-1.95,1.39-.75-1.2-.72-2.92-1.14-4.17l-.05-.15Z"/>
  <path d="M295.83,26.84c.93,1.29-.47,3.29-.86,4.64-.76,2.83-1.1,6.91-2.58,9.63-1.11,2.23-1.35-4.31-1.76-4.85-.86-1.85-1.57-4.15-1.76-6.48-.14-.76-.68-1.55-.35-2.15.59-.54,2.13-.52,3.62-.88,1.06-.17,2.81-.61,3.59,0l.1.08Z"/>
  <path d="M209.76,26.07c-.16.14-1.14.39-1.76.71-.65.34-1.08.68-1.72,1.02-1.79.8-6.99,3.02-9.1,3.94-.4.18-1.04.39-1.06-.21-.03-1.8,1.86-2.82,2.83-4.08.33-.47.63-1.01,1.12-1.3,2-.51,6.41-.07,8.69-.21.72,0,1.11.04,1.03.11l-.03.02Z"/>
  <path d="M174.22,84.86c-1.16.46-2.61-.09-2.42-1.42.03-3.37-.09-7.96.02-11.48.26-1.35,1.03.29,1.23,1,.17.81.41,1.58.81,2.34.37.9,1.09,1.72,1.83,2.51.31.35.84,1.11.88,1.37.07.35-.65.08-1.1.11-.26.02-.43.19-.53.63-.38,1.31.37,3.84-.6,4.85l-.11.07Z"/>
  <path d="M177.73,80.54c.09.39.12.61.67.78.86.27,2.03,1.17,2.8,1.65.49.35.93.31,1.36.6.41.31.32,1-.44,1.13-.63.06-1.48.24-2.06.06-.35-.15-.42-.53-.7-.86-.57-.52-.94-1.2-1.3-1.85-.26-.35-.71-.58-.78-1.02-.03-.34.32-.61.41-.53l.03.04Z"/>
  <path d="M287.67,26.15c.02.18.11.99-.13,1.21-.09.04-.28.13-.37.17-.71.34-1.19,1.03-2.11.65-.57-.22-.93-.8-1.24-1.41-.3-.59-.34-.8.32-.75.98.05,2.63-.09,3.48.06l.04.07Z"/>
  <path d="M178,73.59c.03.46.05,1.2-.03,1.69-.44.21-.78.33-1.16.61-.44.15-1.48.06-1.82-.02-.24-.37.05-1.09.03-1.59.04-.4.04-.59.18-.63.23-.04,2.24-.14,2.76-.1l.04.05Z"/>
  <path d="M294.21,48.51c-.14.22-.12.75-.44.91-.48.2-1.72.13-2.12.17-.23,0-.22-.06-.04-.24.34-.35,1.21-1.21,1.8-1.8.47-.55,1.47-1.28,1.78-.53.1.32.13.76-.08,1.06-.21.23-.65.22-.82.35l-.08.08Z"/>
  <path d="M257.37,82.02c.46.77.38,1.8.27,2.69-.2.23-.38.15-.74.16-.64-.04-1.78.07-2.31-.05.35-.89,2.17-1.73,2.36-2.9.11-.16.2-.29.36-.03l.08.13Z"/>
  <path d="M253.06,73.58c.06.47.01,1.73.02,2.11.02.31-.31.22-.96.24-.23-.01-.74.04-.89-.06-.11.05-.13-2.24,0-2.29.53-.11,1.29-.06,1.78-.04l.05.04Z"/>
  <path d="M204.05,75.92c-.87.13-1.33,1.52-.41,2.02.37.3,1.75.79,1.5-.12-.21-.18-.76-.32-1.02-.55-.11-.15.08-1.21,0-1.32l-.07-.03Z"/>
  <path d="M261.48,31.2c3.62,2.74,4.16,8.62,1.22,11.92-1.26,2.36-4.89,2.82-7.48,2.11-4.32-1.45-4.71-7.61-3.64-11.22,1.28-3.92,6.49-4.64,9.77-2.89l.13.08Z"/>
  <path d="M204.12,75.95c.08.11-.11,1.17,0,1.32.07.2,1.05.4,1.09.67.02.44-.61.5-.97.32-1.47-.46-1.42-2-.19-2.34l.07.03Z"/>
</svg>