<?xml version="1.0" encoding="UTF-8"?>
<svg id="Layer_1" data-name="Layer 1" xmlns="http://www.w3.org/2000/svg" viewBox="0 0 658.11 631.53">
  <path d="M180.54,129.13c-.46.02-4.05,3.48-1.48-.48,10.81-6.58,24.27-4.89,33.98-14.02l-16.34,3.43c-5.87-.88-11.46-2.44-14.65-7.92,12.94,5.07,24.78-1.57,34.02-10.49,8.92-8.61,7.37-9.85,10.47-20.53,7.85-27.06,28.96-27.35,52.78-21.77,3.42.8,9.55,5.51,9.62,9.24.09,4.76-6.08,6.77-3.68,14.83.7,2.36,7.43,6.71,7.55,8.19.13,1.56-2.78,3.4-3.26,4.56-.66,1.61,1.28,4.04-1.5,5.46l2,1.08-.14,7.7c-2.37,5.74-10.35,2.23-13.45,4.62-2.78,2.14-3.32,11.68-4.42,15.09-3.48-1.73-8.08-3.78-11.98-2.5,3.73,2.39,9.78,6.06,13.98,7.02,3.81.87,7.63-.07,11.29,1.71,11.47,5.58,10.35,29.12,14.68,40.32,2.06,5.32,8.29,9.28,9.63,14.45.64,2.47-.75,5.51-.5,5.87.22.31,4.27,2.81,5.88,4.67,4.6,5.33,15.9,23.68,21.07,26,3.22,1.45,11.22-3.63,13.4-6.6,2.32-3.17,12.76-25.42,12.37-28.2-.2-1.47-1.78-3.22-2.13-4.93-1.36-6.58,6.05-12.7,7.11-17.51.66-3.02-.1-6.33.45-9.55,1.07-6.34,5.97-12.87,7.7-19.3,3.74-13.9,1.28-23.22,8.2-37.8,5.81-12.25,7.36-10.24,16.36-17.64,1.36-1.12,10.3-8.91,10.45-9.61,1.11-5.24-9.92-1.91-12.42-2.41-5.46-1.09-3.08-5.16-3.59-7.41-.65-2.86-2.13-4.71-2.89-6.33-1.02-2.2,2.01-3.49-4.09-3.67-3.34-4.64,2.03-9.29,2.05-14.05.01-3.26-2.34-6.95-2.07-10.46l-3.85.06-.1,2.9c-4.02-1.65-3.61-6.71-1.98-9.99l-4.01-1.54c.94-7.16,9.63-7.19,13.3-9.45,1.07-.66.63-2.54,2.28-3.93,5.26-4.45,18.61-6.58,25.42-6.1l-1.01-1.98c5.26-.31,9.22-.39,13.5,3,1.88,1.49,11.65,11.48,12.71,13.29,5.88,10.02,2.97,24.13-.88,34.53-1.26,3.41-4.6,5.01-5.13,6.87s.31,5-.63,6.37c-1.06,1.54-10.47,1.01-11.57,4.92,13.38-3.37,30.33-5.29,30.99,13.01-1.4.59-2.99-1-3.49-1h-19c-.6,0-2.25,1.39-3.49,1.01v.99s14.49,0,14.49,0c4.04,0,13.34,8.66,17.76,10.24,3.56,1.27,6.54.47,10.09,2.91,8.92,6.13,5.78,18.43,6.76,27.24.64,5.76,3.44,11.82,3.93,18.07.85,10.84-.33,21.88-2.03,32.53l4.49-6.99c1.97,2.11,3.18,4.58,3.53,7.47.55,4.58.64,21.66-.29,25.78-1.13,5.01-7.53,5.21-9.05,8.01-2.2,4.06-8.64,28.21-9.43,33.5-1.06,7.11.95,16.47-4.75,22.25-2.28,2.31-8.49,4.03-9.3,6.7-1.39,13.26-2.92,26.54-4.19,39.81-.55,5.71,1.75,12.54-5.95,15.04-3.47,1.13-5.75.12-9.06-.54,3.49,7.19,19.48-.13,16.57,9.04-2.42,7.61-10.79,4.29-16.57,4.45,5.28,4.31,12.2,5.98,18.95,5.55.65,10.36,5.08,20.29,5.91,30.58.88,10.88-3.23,21.91-.37,32.37,2.35,8.6,6.32,9.6,5.53,20.54-.33,4.52-2.26,8-2.92,12.08-1.26,7.84,1.02,16-6.12,20.37,4.55-1.12,9.85-1.91,14.27.24,3.27,1.59,5.76,6.4,8.8,8.2,4.75,2.8,11.18,2.77,16.42,6.58,6.13,4.45,9.25,12.01,14.11,16.89,8.81,8.83,32.91,11.74,44.71,18.29,11,6.1,20.32,25.96,33.27,27.73,5.62.77,12.15-.41,17.9.1,15.01,1.34,23.3,11.44,35.21,18.79,1.46.9,16.55,7.57,15.3,9.18-6.36,1.02-15.19,6.37-21.49,6.08-7.09-.33-15.31-10.74-24.11-10.98-16.35-.45,5.28,15.57,4.61,21.91-5.71.72-11.66,4.09-17.5,4.08s-10.98-3.69-16.5-5.06l7,8.98c-.86,1.14-24.84,7.99-27.4,7.92-4.51-.12-17.74-6.48-21.9-9.11-4.66-2.95-7.51-7.2-11.36-9.64-4.08-2.59-9.21-2.91-13.27-5.73s-5.77-7.85-8.83-10.45c-3.36-2.84-8.79-3.66-12.56-6.15s-8.13-9.38-13.71-8.36l-2.03,1.19c-.95,4,4.51,10.77,7.1,13.81,1.96,2.3,6.53,7.76,8.97,7.03l-3.98-8.5c9.91,3.23,15.11,11.71,22.52,17.97s16.75,10.71,23.47,18.02c-11.04-.63-19.61-1.68-29.31-7.18-8.82-5.01-29.58-21.11-38.25-22.74-1.7-.32-4.89-.41-6.44.43,5.79,5.97,9,16.87,14.46,22.54,1.96,2.03,12.47,8.86,15.05,9.95.45.19,1.64.26,1.48-.48l-5.97-9.04c-1.14-4.18,8.5,1.3,9.28,1.73,5.51,3.03,9.87,7.73,16.01,9.99s12.36,2.13,18.24,3.76c1.37.38,3.1.13,3.45,2.04-22.81,4.6-45.59,9.57-68.67,12.84-64.91,9.22-134.44,10.52-199.82,6.16-45.57-3.04-91.17-9.4-135.51-20,3.62-5.39,7.26-11.08,13.06-14.43,10.43-6.02,30.48-6.43,31.93-21.56-1.54-1.71-26.69,14.71-31.98,8.51.08-2.79,12.91-10.5,10.98-12.51-7.3,3.24-18.67,4.17-24.53,9.96-5.54,5.48-7.73,16.14-16.23,18.77-13.6,4.22-28.21-4.56-41.22-7.75l2.99-5.97c-10.89,3.11-18.57,1.33-29-2.02-.03-10.66,18.69-14.09,12.33-25.04-9.64-2.31-21.17,12.73-28.88,13.99-6.94,1.14-21.68-3.66-28.45-6.46-.95-.4-2.29-.1-1.99-1.47,17.97-2.71,28.36-24.69,44.34-29.17,4.91-1.38,10.35-1.06,14.91-2.09,7.6-1.7,13.81-10.39,20.85-14.15,6.65-3.55,15.03-4.48,21.43-7.57,6.76-3.26,12.47-10.94,20.1-14.9,13.43-6.97,32.32-9.93,44.88-17.12,8.08-4.62,14.87-15.34,22.14-18.86,2.74-1.33,5.79-1.34,8.26-2.74s3.7-4.33,7.06-5.94c4.05-1.94,9.48-2.53,13.92-2.58-.45-2.54,3.09-7.99,3.09-9.4v-48.5c-11.81-4.06-14.99,5.35-27.51,4-5.76-.62-23.45-8.05-25.74-13.25-2.15-4.88,2.45-8.94-1.74-15.25s-23.94-9.19-19.8-22.79c1.17-3.84,25.81-21.59,30.81-26.19,29.76-27.39,35.24-58.43,54.57-91.43,6.44-11,12.45-11.3,8.68-25.84-3.6-13.9-12.67-27.12-11.27-42.24-8.87,10.23,4.59,23.2-9.49,31.99-.34-3.08,2.6-4.88,2.54-8.52-.09-6.29-8.57-14.41-4.05-22.48-6.22,3.4-6.4,9.63-6,16-7.78-5.78-5.46-14.35-2-22-9.75,6.07-7.27,17.51-5,27-9.23-4.96-23.29-12.79-15.99-24.99-1.94-.51-1.93.76-2.82,1.67-7.18,7.31-7,9.25-9.19,18.83-.36,1.55.67,1.74-1.98,1.5-3.97-13.92-1.47-24.45,9.99-33.51-.79-1.5-2.4.23-3.28.72-4.47,2.46-7.97,5.37-11.7,8.79,1.24-8.4,10.04-17.31,18.18-19.31,4.15-1.02,7.39-.24,11.19-.81,9.04-1.34,18.6-5.41,24.62-12.38l-12.01,5.99c-2.51,1.02-10.24,3.51-12.49,3.51-6.3,0-12.72-.3-19,0ZM231.04,126.12c13.92-4.42,29.85-11.66,31.99-27.98l-5.02,7.47c-4.19,4.26-8.7,8.98-13.65,12.35-4.41,3.01-9.64,4.45-13.33,8.16ZM392.04,113.12l.24-5.26,4.26-9.73c-5.93,5.4-11.81,12.83-12.5,20.99l5.99.49c-9.93,6.5-5.66,15.54-8.69,25.31-1.02,3.28-6.3,10.6-6.31,11.72-.05,5.2,10.12-.26,12.22-3.81,4.7-7.93-2.51-14.85.24-23.76,1.69-5.48,17.18-13.99,15.51-20.36l-2.44-1.58-8.51,5.99ZM395.05,199.13c4.83-4.78,13.11-10.63,15.46-17.03,2.16-5.87.98-10.47,1.79-16.21,1.81-12.85,11.93-26.63,10.73-40.76l-8.78,12.71c-1,8.12-.17,16.57-4.03,23.97-1.4,2.69-5.03,6.08-5.74,8.27-1.32,4.06,1.04,6.7.38,10.29-.87,4.76-9.64,12.49-9.81,18.76ZM470.03,134.13c-2.59-.22-1.67-.16-1.97,1.5-.77,4.33-1.19,8.19-2.57,12.46-7.51,23.22-17.79,34.98-15.45,62.53.1,1.21.37,5.35,1.98,5.51.58-2.5.31-6.77,3-7.99,4.45,13.9,1.98,21.17-9.99,28.99,3.72.19,13.17-2.31,15.46-5.03s1.87-20.77,1.57-25.5c-.21-3.36-1.62-6.08-1.93-9.07-1.58-15.39,6.29-28.32,8.6-43.19,1.05-6.74,1.65-13.37,1.29-20.2ZM284.04,159.14c.96-8.33-7.73-5.16-5.84,1.28,1.35,4.58,7.45,1.04,9.75,4.29,2.73,3.85,1.54,11.8,2.56,16.44.55,2.51,3.66,10.73,6.83,9.87l2.61-3.25c-8.89-5.24-6.44-22.96-10.42-28.65-1.41-2.02-3.57-.14-5.5.02ZM252.05,170.13c.11-2.75-1.98-5.93-5.01-5.99-1.52,2.73,2.79,5.91,2.78,6.48-.03,1.01-2.92,1.77-.85,4.08s6.27.67,9.06,1.44l-.99-6c5.32,2.93-.87-6.58-3-4.98-.56,1.68.26,4.46-2,4.99ZM386.03,172.12c-2.69-4.69-8.4-5.98-12.99-7.99l.98,4.51,12.01,3.48ZM381.03,179.12c1.32-1.29-9.94-12.55-12.99-8.98-.04,3.35,12.12,9.84,12.99,8.98ZM278.03,185.12l-.76-3.73-6.23-8.25c-1.4,6.17-1.2,13.17,6.98,11.99ZM477.04,191.12c6.06.32,8.41-5.91,7.99-10.99-3.66,2.89-7.03,6.46-11.98,7.01l4.99,1-1,2.98ZM302.03,198.14c-3.84.56-10.25,5.89-14.02,3.52-1.82-1.14-1.54-6.02-4.98-5.52,0,10.88,8.88,17.83,11.7,27.79,12.65,44.74,8.5,113.13,4.28,159.69-.12,1.34-.86,5.8-1.46,6.55-1.69,2.1-4.68-1.22-5.43,4.54-1.75,13.64-5.04,36,2.46,47.36,8.51,12.89,10.63,6.47,22.04,5.17,9.68-1.1,18.03,1.64,27.39,2.89-4.06-17.78,10.84-10.53,19.23-14.26s.67-11.66.67-17.23c0-3.88,2.85-6.61,2.79-9.83-.08-3.67-2.89-10.8-3.55-15.31-3.15-21.52-4.99-43.29-8.15-64.82,3.83-16.78,6.62-33.79,10.5-50.56,2.08-8.99,7.87-23.46,8.52-31.62.15-1.84-2.53-1.22-2.79-4.05-.7-7.73,14.08-35.8,12.79-37.29l-2.86-.93c-5.63,9.4-15.31,16.04-18.86,26.67-2.09,6.28-1.58,12.43-3.78,18.22-7.97,4.13-11.42,9.03-20.02,4.04-1.86-1.08-6.71-4.84-7.27-6.73-.67-2.3.37-4.14-1.14-6.86-2.83-5.06-17.8-14.26-23.07-18.93-2-1.77-11.74-11.07-12.46-12.54-.55-1.11-.99-2.65-.33-3.8l7.8-6.17ZM253.03,231.13c-3.43.03-4.98,4.1-5.01,7l-2.05-.58-.95-3.41-2.99,1.52,2,3.46c-5.19.62-2.27,5.52-1.99,9.02.37.37,7.94-4.69,8.53-6.02,1.07-2.43-.57-3.89-.32-5.37s3.79-2.8,2.77-5.6ZM269.11,249.04c3.12,4.09,7.82-5.82,3.42-8.89-2.23,1.16-4.77,7.13-3.42,8.89ZM460.03,246.13c-22.95,7.26-46.6,4.25-70.01,1.49,9.21,3.32,19.09,5.73,28.8,7.21,9.01,1.37,27.82,3.47,35.92-.5,3.19-1.57,4.99-4.72,5.29-8.2ZM260.06,264.13c1.11.79,11.97-8.93,8.01-11.53-7.71-2.5-12.54,5.16-8.01,11.53ZM233.9,273.27l-5.86,1.39,2.99,6.47c-10.33-1.3-6.95,11.71,1.99,5-.14,6.44,8.12,7.21,8.85.65l-3.84-4.62c3.97-.47,4.38-3.56,4-7.02l-6.99,2-1.15-3.86ZM276.94,368.03c5.51-28.63,11.29-57.54,10.09-86.89l-3.16,24.33c-3.56,21.12-8.56,42.05-15.82,62.18l8.89.39ZM392.04,369.63c-.72,4.61.52,10.69,0,15.5l4.5-9c3.36,9.96.41,21.05,1.6,31.39.86,7.4,6.1,14.22,6.9,21.11.95,8.17-1.83,16.32-1,24.5,9.89-1.17,6.7-1.87,8.2-8.29,1.84-7.82,13.75-2.77,16.33-6.67s-2.98-13.75-2.52-18.45c.39-3.99,5.03-9.55,5.03-14.12-3.12-15.32-6.57-30.62-8.91-46.1-.48-3.19.28-6.46-.35-9.65s-4.02-7.26-5.09-10.91c-2.07-7.08-2.97-23.67-2.72-31.36.21-6.55,2.11-13.94,3.03-20.46l-23.98,35.52v1.48c5.71-5.07,6.3,2.34,3.44,6.95-4.03,6.47-11.87,4.96-18.45,5.06,4.59,7.24,25.63,1.8,14.36,11.86l-9.37,2.14c1.84,4.34,10.6,2.16,12.52,5.98,2.03,4.45-2.91,9.58-3.52,13.51ZM264.56,292.46c-5.42-.61-8.93,8.92-3.86,10.56,5.89,1.91,8.45-10.04,3.86-10.56ZM216.54,302.15c-1.66-.09-4.37,3.59-4.48,5.54-.52,9.17,9.77-5.26,4.48-5.54ZM252.98,303.22c-4.6-.8-9.24,1.47-4.94,5.88-7.01,2.87-1.39,6.01,4.44,4.96,3.05-.55,9.78-4.15,7.12-7.99-1.33-2.32-6.17.51-6.56.06l-.06-2.91ZM211.8,313.38c-2.82-.92-10.12,5.55-9.76,7.24.76,3.56,9.56-1.61,11.88-1.59,1.26-1.32-1.28-5.37-2.12-5.64ZM188.03,331.12l-4.9,1.59c2.23,4.54-.65,2.99-1.58,4.39s-.96,5.5,1.07,5.93c4.83-2.3,4.02.48,4.65.84,2.15,1.23,5.85-1.09,5.47-4.06-.09-.71-1.31-1.51-1.32-2.17-.02-.84,2.62-3.41,1.62-5.5l-4.98,3v-4.01ZM258.25,337.82c-1.06-.74-2.92-5.93-6.05-.98-1.83,2.89.59,4.22.55,4.8-.1,1.37-6.25,4.81-.1,8.45,3.07-1.58,4.34-3.87,8.39-2.96-1.07-2.6.56-8.19-1.02-9.48-.3-.25-1.39.43-1.77.17ZM228.06,345.13l-3.02-5.53c-3.7-1.83-6.61,1.38-6.08,5.02l3.07,3c-.76,1.73-5.63.97-5.88,6.01-.31,6.05,6.02,3.37,7.93,4.06,1.36.49,2.75,3.49,5.48,3.41l4.34-3.69-2.86-6.28c7.85-.21,3.3-9.87-2.98-6.01ZM168.68,341.25l-8.63,6.38c3.06,5.62,11.87-1.46,10.98-4.98l-2.35-1.4ZM200.75,357.28c-12.5,7.19,5.28,18.61,2.82.81l-2.82-.81ZM194.79,369.36c-2.98-3.1-13.74,5.52-4.78,8.37,4.77,1.52,7.19-5.86,4.78-8.37ZM269.03,390.12c-1.72-1.73-20.46,8.07-24.5,8-2.56,6.77-11.35,45.15-6.53,48.57,3.83-.97,24.25-3.3,25.07.1,1.02,4.24-6.5,14.29-10.11,16.77-6.08,4.18-16.34,6.5-22.81,10.19-1,.57-5.28,2.75-4.11,4.37,11.4,3,23.32-2.35,33.99-6l-8.51-.99c-1.1-.08-3.32.56-2.48-1.49,1.71-4.14,17.24-7.88,20.56-11.52.84-1.65-3.34-7.67-3.23-11.34.22-7.36,7.24-12.64,6.74-20.15l-4.08-36.5ZM304.04,476.12c.07-6.99,8.95-7.31,13.98-9.51,2.73-1.19,12.2-4.78,9.58-8.54-11.26-6.36-9.99,2.27-15.62,6.5-3.38,2.53-8.68,3.35-12.47,5.53-2.94,1.69-5.57,4.42-8.56,6.44s-10.41,3.7-9.96,8.03l2.53,3.29c10.71-5.36,23.12-5.85,33.5-11.75v-1.98s-12.99,1.99-12.99,1.99ZM447.04,501.13c.5-6.67-7.78-10.15-13.02-12.48s-12.42-3.61-17.52-6.48c-7.67-4.33-10.21-12.55-19.78-16.22s-11.54-2.24-20.26-.89c-3.76.58-8.77-1.24-11.32,2.75-1.95,6.19,13.65,15.22,17.4,19.32l-3.5-12.99c26.34-3.61,24.15,30.01,44.01,38.48,11.68,4.98,26.32,5.63,37.98,11.51,1.1-1.06-6.87-8.59-7.98-9.51-2.04-1.69-17.11-9.66-12.04-13.02l6.03-.48ZM151.04,497.12c16.82-4.43,41.1-4.4,53.9-17.58,4.99-5.13-2.47-6.15-6.95-4.94-7.85,2.12-17.08,14.86-28.51,13.48l-18.45,9.04ZM470.04,487.12c-9.06-7.14-20.65-10.98-32-12.98,8.15,9.96,19.14,14.26,32,12.98ZM265.04,548.12c9.65-.41,13.55-13.12,19.08-16.41,5.74-3.41,14.64-3.68,20.86-8.14,7.19-5.16,5.39-11.92,10.07-17.93,3.55-4.56,11.07-6.55,13.85-11.15,2.17-3.59,2.66-9.22,3.14-13.35-6.03,1.71-8.91,7.6-13.66,10.83-5.9,4.02-15.43,5.31-18.9,12.1-2.03,3.97-1.7,7.1-4.92,11.08-4.47,5.54-9.39,5.1-14.46,8.54-8.25,5.6-9.24,16.82-15.06,24.43ZM373.68,496.48c-4.57-5.29-11.5-9.54-16.64-14.35-.71.83,8.9,17.34,10.19,19.3,3.66,5.58,8.31,10.44,14.8,12.69-1.28-6.97-3.73-12.29-8.35-17.64ZM254.03,498.13c-1.02-1.06-25.45,7.03-28.26,8.23-15.01,6.42-12.72,15.3-21.72,25.28-8.04,8.93-23.67,9-24.02,24.47l36.5-18.99c2.94,4.12-12.65,23.12-11.51,23.98,5.98.53,9.56-4.62,14.33-7.16,14.43-7.67,25.94-8.58,29.66-27.83-7,1.84-10.89,7.35-16.7,10.79-1.21.72-3.97,2.93-5.29,1.71,4.32-5.44,4.37-15.06,7.57-20.43,4.1-6.86,19.37-9.63,19.42-20.07ZM567.03,545.14c-12.35-4.89-16.21-20.04-28-25.51-10.5-4.87-23.34-3.67-33.54-7.46-11.38-4.22-18.14-16.59-33.45-9.04-.39,1.88.94,2.42,2.08,3.41,4.42,3.86,12.24,6.18,15.91,10.09,2.97,3.16,4.29,8.82,7.18,12.82,3.13,4.33,7.57,7.57,11.82,10.67l-3.98-12.99c14.52,4.02,16.64,22.64,30.31,28.18l33.69,7.8c-8.34-15.34-30.45-7.19-32.99-26.99,9.03,3.65,17.54,9.02,27.51,9.99,1.06.1,3.74.71,3.48-.98ZM187.03,502.14c-3.41-2.81-29.11,18.93-27.99,25.99,11.44-4.79,23.84-13.81,27.99-25.99ZM128.03,512.13c-7.49-.1-11.6,6.74-17.3,10.19-9.21,5.59-23.49,5.96-28.19,16.81-2.41,5.56-4.08,13.19-6.5,18.99,12.08-5.72,21.27-17.03,34.98-19,.65,6.64-4.62,11.7-7.2,17.29-.37.81-1.68,2.14-.29,2.71,7.6-6.69,17.83-9.91,26.19-14.8,9.16-5.37,7.72-11.09,12.48-18.53,2.42-3.78,7.36-6.79,8.84-11.65-13.98,1.39-17.38,18.38-30.99,19.98-.91-8.38,8.04-13.95,7.99-21.99ZM361.04,553.12c-2.03-8.17-8.02-7.9-13.35-11.14-9.84-5.98,3.34-10.64,2.38-17.3-.41-2.85-5.56-6.75-8.53-6.61l-34.42,15.64c-7.06,4.01-12.02,10.67-17.07,16.93,10.41-.77,17.02-11.83,27.99-10.5l-7,11.98c17.03-6.92,32.91-3.25,50,1ZM435.04,590.12c-3.27-5.05-8.81-10.58-14.32-13.17-5-2.35-10.86-2.55-16.05-4.95-3.5-1.62-18.85-15.77-17.62-4.46.74,6.8,11.63,10.26,15.53,14.54,3.28,3.59,3.62,9.14,7.02,12.98,2.45,2.78,12.23,8.92,15.49,6.62l2.44-4.53c5.12,2.82,6.7,9.38,13.5,9.97,2.09-1.95-11.72-11.72-15.35-11.08-1.44.26-.21,4.98-6.01,1.94-2.69-1.41-5.69-5.42-6.7-8.3-.5-1.42-2.52-6.73.56-6.58,3.97.2,20.03,8.16,21.5,7.01ZM264.03,576.13c-10.98-.8-15.24,11.12-22.66,15.83-5.74,3.65-14.57,4.92-21.35,8.65-4.46,2.45-9.18,6.12-12.98,9.51,7.04-.64,14.83-1.07,21.66-2.83,6.85-1.77,15.43-7.87,21.98-8.12,5.29-.2,3.64,8.72,13.32,5.41,3.6-1.23,11.28-11.99,15.49-14.5l3.56-11.44c-9.21,2.32-14.52,13.5-25.01,12.48l5.99-14.99Z"/>
</svg>