<?xml version="1.0" encoding="UTF-8"?>
<svg id="Layer_1" data-name="Layer 1" xmlns="http://www.w3.org/2000/svg" viewBox="0 0 1262.78 453.98">
  <path d="M263.66,3.85v4c-5.76,5.95-10.75,11.95-16.99,17.51-8.4,7.5-26.42,17.96-30.01,27.49-.49.01-1.82-1.63-3.05-.58-.86.73-.62,2.63-1.2,3.32-.71.86-2.62.64-3.46,1.54-1.91,2.08-4.89,5.92-5.28,8.71l12.43-10.05c.93-.81.32-2.32.56-2.95,7.86-.22,17.63-8.69,24.98-12.52,13.39-6.98,28.41-13.78,42.35-19.65,6-2.53,46.18-18.97,48.67-16.82-.9,2.91-3.45,6.81-5.5,8.99-19.49,20.73-52.95,23.79-73.84,48.12-.79.92-5.44,6.14-4.65,6.88,16.54-6.84,34.45-10.97,52.49-9.99,5.08.28,15.12,3.16,19.07,2.89,1.82-.12,5.52-4.39,5.92.12l-2.48.97c15.03,2.32,28.6,9.31,41.99,16.02l-12.69,8.28c-1.42,5.43-4.02,11.89-.33,16.96,5.63,7.74,14.96,1.94,21.09,9.43.88,4.21-7.24,15.33-9.58,19.31-7.16-5.16-12.87-11.75-20.17-16.82-22.31-15.49-48.43-23.24-75.76-21.25-.33,2.99-2.82,5.13-5.55,2.57l2.49-1.52c-3.73-2.43-37.88,15.27-35.49,17.02,3.32.05,6.68-.03,10,0v2c2.15-.03,4.35.18,6.52-.03,1.62-.15,1.39-.97,1.48-.97,1.61-.08,3.39-.09,5,0v1.99s2-.99,2-.99c.88.19,2.31-.25,3,0l1,6c-.32-.05-.67.05-1,0s-.67.04-1,0c-1.85-.25-4.06.14-6,0-.27-.02-1.58-1.63-2.99-.99v1.99h-2.01l-1.99-.99v1.99c-5.58.07-22.76,10.35-29.35,13.22-1.17.51-2.5-.22-2.59-.13-3.14,3.06,2.19,4.45,4.54,4.77,6.64.91,15.2-.31,21.38-2.85.37,3.14-3.61,3.7-5.06,5.48-.72.88-.04,2.6-.87,3.07-1.11.63-2.71-.38-4.1-.1-21.56,4.27-38.07-1.62-60.39,3.62-10.35,2.43-19.84,6.84-29.57,10.94l1.99,1-1.5,1.97c-2.82-3.39-7.73,1.06-12.5-.97-.37,2.18,5.31-.3,3.99,2.48s-8.64,2.72-11.52,4.49c-3.49,2.14-3.65,6.18-6.04,9-3.84,1.11-11.27-11.39-11.99-14.92-1.87-9.22,1.8-15.56,1.57-24.06l1.92.97,5.57-9.94c5.04,9.82,21.76-4.1,26.99-9.03,9.93-9.35,6.03-14.51,9.76-25.24,2.09-6.03,21.35-17.71,27.22-22.78,9.19-7.93,17.3-17.49,26.51-25.49,20.7-17.96,40.5-30.09,64.01-43.49ZM177.67,101.86c-3-2.23-17.3,5.16-15,6.99,2.8-1.18,5.22,1.51,6.69,1.76,3.9.66,3.88-4.11,4.96-4.88.99-.71,3.43.44,4.34-1.38l-1.76-.65.77-1.84Z"/>
  <path d="M407.94,112.56c1.6,1.24,4.12,1.02,6.23,2.29,23.9,14.33,50.63,62.04,58.43,88.56,14.33,48.74,7.93,101.79-15.51,146.46l-9.49-2.64c-1.45-7.93,1.4-6.38,4.51-10.45,2.08-2.72,4.6-8.9,4.48-12.3-.22-6.14-2.19-3.76-4.93-5.11-6.28-3.09-7.11-5.27-15.25-4.27-17.99,2.19-7.81,13.65-8.76,25.74-.88.88-22.22-5.19-23.99-6.52-3.12-2.35,5.11-6.86,0-9.48-.77,7.74-4.84,8.89-9.75,13.47.96,4.64,5.69,3.4,9.29,4.49,1.12.34,1.77-.65,1.43,1.51-4.87,8.07-9.66,16.18-15.15,23.85-2.14,2.99-11.66,13.08-12.37,14.71-.54,1.24.63,2.81.52,2.91-.13.13-2.29.12-3.51,1-4.03,2.91-8.42,9.01-12.47,12.56-26.42,23.15-58.82,39.37-93,47.49.8-4.66-4.51-15.95,1.7-17.84,3.94-1.2,9.48,4.46,13.96,4.59,10.02.28,14.01-18.31,8.37-25.29-4.45-5.5-10.74-3.76-16.08-1-3.29,1.7-6.82,6.1-9.98,5.14-5.07-1.54-4.54-7.36-3.52-11.65,35.92-14.53,65.2-40.48,86.55-72.52,3.32-1.73,24.72,11.88,24.78,2.28.02-3.8-3.42-8.02-2.85-13.24,1.72-15.58,31.73-8.23,33.85,1.3.55,2.48-1.46,6.9,1.21,8.21,2.9-7.92,7.48-15.13,10.5-23.01,12.72-33.27,12.83-75.99.26-108.23-1.39-3.56-7.33-17.68-9.28-19.74-1.07-1.13-2.95-.78-3.29-1.16-.45-.51,0-3.16-.69-4.81-2.48-5.87-11.22-11.74-14.34-17.74-1.31-4.98,13.35-13.45,8.65-20.07-1.74-2.45-8.17.93-11.77-.75-1.99-.93-10.82-9.87-10.94-11.9,1.08-16.31,13.42-25.81,27.27-13.43,2.03,1.81,3.69,5.6,4.93,6.56Z"/>
  <path d="M9.66,224.85c-.29,5.13.07,10.38-.03,15.48-.99,52.45,14.02,101.14,54.56,136.49,4.17,3.64,6.49,3.39,9.45,5.08.11.06-.91,1.43-.08,2.47,1.21,1.52,9.5,6.88,11.78,8.31,25.62,16.05,56.25,23.3,86.34,23.16l-1.02-1.98c20.28,3.1,40.24-4.46,59.49-10.02.66.05.18,10.72,5.86,10.83,1.86.04,5.46-5.67,8.76-7.21,14.69-6.87,22.87,14.66,13.92,25.91-7.31,9.19-15.15.1-24.02-.52l.89,16.9c-28.77,5.97-57.85,5.54-86.53-.81C58.27,428.84-23.49,328.64,6.2,229.88c.44-1.47,1.12-5.76,3.46-5.03Z"/>
  <path d="M469.66,109.87c.07,1.68.53,2.18-1.44,1.95-5.95-.7-12.85-4.53-20.08-4.96-2.28-.14-4.91-.63-6.46,1.49,15.88,14.4,32,28.65,45.95,45.03,12.91,15.15,22.36,29.13,30.73,47.22.57,1.22,2.01,1.15,2.11,1.75.05.33-.12,6.57-1.32,6.48-5.7-7.69-13.15-16.2-20.49-22.49-1.43-1.23-12-9.54-13.01-8.48-.35,1.74.54,2.91,1.13,4.36,4.72,11.75,14.23,24.89,19.73,37.27,8.26,18.62,14.26,38.24,15.18,58.82.15,3.24,1.05,17-2.52,17.27l-2.53-.74c3.04-12.2-7.77-23.25-12.04-33.98l-3.99,1.66,2.08,28.79-1.05,29.03c-.4,4.46-5.15,37.02-7.64,37.58-4.24-.99-13.9-.44-13.36-6.07l-1.98.02c-.4,4.95-9.37-.26-13.01-.03,6.78-12.98,12.03-26.57,15.75-40.74,9.44-35.9,9.84-76.17-1.5-112.02-2.66-8.4-6.05-16.43-9.16-24.64-4.97-.64-2.34-2.69-3.54-6.65s-17.7-28.95-20.99-32.01c-4.64-4.31-2.93-2.82-6.55-7.45-5.55-7.11-14.58-13.34-20.77-19.98l11.25-18.52c2.65-2.46,11.97,3.08,15.18,4.83,8.39,4.58,15.53,11.26,24.32,15.19Z"/>
  <path d="M660.3,329.23c32.16,21.28,34.87,76.67,2.83,99.59-6.54,4.68-14.18,8.97-22.09,10.91-23.36,5.71-48.47,2.13-72.37,3.12-.08-3.18,3.93-3.5,6.03-5.46,5.95-5.52,6.49-10.1,7-18,1.41-21.53,1.08-51.39,0-73.08-.23-4.64-.86-15.6-3.04-18.96-1.26-1.94-10.35-8.05-9-9.49,3.13.28,6.27.96,9.45,1.04,26,.63,58.38-4.75,81.18,10.34ZM618.16,326.85c-5.31-.46-11.13.33-16.5,0v104c9.9,3.04,21.45,1.8,31.24-1.09.22-.07,3.33-1.23,3.73-1.4,24.29-10.36,30.18-37.62,25.84-61.85l-2.8-.66c1.38-10.55-9.03-25.44-18.28-30.27-4.52-2.36-7.86-3.17-11.44-5.16-3.4-1.89-7.39-3.19-11.79-3.57Z"/>
  <path d="M747.16,340.85c2.63.35,17.38,6.65,19.21,8.29.6.54,4.99,8.72,5.48,10.03,6.29,17.06-3.73,30.04-18.8,36.6-.96.42-1.74-.58-1.38,1.58,8.13,10.34,14.56,22.02,22.58,32.43,3.47,4.5,7.02,9.85,13.4,10.12l.02,2.97c-12.95-.23-21.9,3.65-30.83-7.67-7.2-9.12-13.03-20.58-19.98-30-.75-1.01-.51-3.3-1.43-4.1-2.02-1.77-9.9-1.07-12.77-1.23v30.5c0,.61,6.26,9.05,7.54,9.47l4.46-2.97-1,6.99c-1.09.39-2.2-1-2.49-1h-37.5c.15-3.29,4.2-3.64,6.54-5.96,4.88-4.85,2.34-6.18,2.95-10.55,2.52-18.02,2.97-47.49,1.57-66.04-.26-3.42-2-10.75-4.4-13.11-2.26-2.23-7.52-2.71-7.66-6.34h54.5ZM722.66,349.85v42c2.3.48,5.77-1.62,6.66-1.69,5.08-.39,6.67,1.22,13.02-1.13,13.73-5.09,15.34-27.66,5.58-35.22-1.64-1.27-11.71-4.62-13.88-4.83-4.12-.39-7.41.04-11.38.87Z"/>
  <path d="M1212.16,340.85c2.28,0,7.7-2.33,7.5,1.99-6.39.09-12,6.33-12,12.51v90c0,.27.92,1.06,1.02,1.98l-2.01.5c.09-3.25-4.02-2.47-6.57-3.93-7.8-4.48-14.03-17.01-20.44-23.55-3.5-3.57-2.75-1.39-5.79-6.19-4.7-7.42-12.64-14.91-18.19-21.83-4.82-6.02-13.6-19.95-18.36-24.13-.64-.56-1.83-1.03-2.67-1.34v64.5c0,2.09,4.48,5.6,7,4.51l-2,2.98,5.01.02v3.99h-29.51c-.21,0-1.1,1.63-2,.01l-.5-3.01c7.6.37,10.33-5.86,10.99-12.52,1.68-16.79,1.64-53.18.05-70.03-.67-7.15-4.43-12.83-12.03-13.49v-2.97s25.49,0,25.49,0l42.33,51.63,15.67,21.38.41-58.42c-.18-1.27-2.6-8.16-3.06-8.43-1.23-.71-3.94.41-4.72-.3-.34-.32-.09-2.03-.68-2.8-1.02-1.32-3.16-.33-2.45-3.06,9.15-.02,18.33.03,27.5,0Z"/>
  <path d="M1088.32,348.19c17.75,13.67,23.82,36.02,18.88,57.69-6.95,30.54-37.64,45.16-66.99,36.91-1.41-.4-11.76-3.97-12.33-4.29-4.38-2.48-13.13-17.3-16.82-19.64-1.03-.66-1.33-.55-2.4-.02l.05-6.35-3.05-.66c-.45-1.68,1.92-.46,2.08-1.59.25-1.74-1.87-7.21-2.07-9.92-1.45-20.44,2.86-38.53,19.98-50.99-5.75-3.18-.13-1.72,1.11-2.03,2.79-.71,7.61-4.2,11.37-5.5,15.77-5.45,36.7-4.01,50.19,6.38ZM1066.34,349.28c-8.31-2.96-16.32-3.24-24.04,1.74-1.84,1.19-6.87,6.43-5.64,8.84l-1.98-1.02c.81,3.31-3.03,3.98-4.28,6.29-7.49,13.9-6.28,42.96,2,56.44,1.37,2.23,2.9,3.83,5.27,2.29-2.11,5.07,6.03,10.03,10.19,11.32,42.62,13.25,54.88-62.22,22.74-83.83-.34-.23-4.01-1.98-4.25-2.07Z"/>
  <path d="M982.53,342.98l2.13,30.86h-4c1.98-4.91-4.02-12.3-7.45-16.04-20.35-22.21-51.2-8.62-56.29,18.81-3.28,17.65-.6,41.44,15.25,52.24l1.48-2.99c-1.59,3.65,5,7.3,8.02,8.48,7.2,2.82,17.89,2.08,24.99-.99,3.45-2.9,2.03-26.51,1.02-31.8l-6.01-.71.99-3.99h-4.01s.01-4.01.01-4.01c4.91,2.64,32.62-.56,33.99.45,4.08,3.02-1.8,3.73-3.56,5.48-7.54,7.45-.38,28.74-3.92,36.08-1.75,3.63-10.69,3.09-9.52,7.99l-1.55-2.06c-16.13,5.27-34.28,6.09-49.99-.92l-1.45,1.98c-.06-.85.2-2.03-.25-2.71-.38-.58-9.4-6.61-11.23-8.31-29.09-26.93-16.26-81.88,23.43-90.52,15.7-3.42,32.35-.25,47.91,2.68Z"/>
  <path d="M801.66,158.85c1.16-4.61,8.64-4.54,8.94-10.56-1.84-28.32,2.63-60.09.11-87.99-.26-2.82-.95-4.81-2.22-7.28l-6.79-.23-1.04-6.94c9.13,1.12,18.31.99,27.54,1.04,4.21.03,8.15-1.15,12.95-1.03,17.9.45,34.96,5.46,40.98,24.01,8.68,26.75-12.71,50.16-39.99,46.99-5.35-.62-5.1-2.33-6.48-7.01,19.09,4.19,31.2-11.87,29.01-30.01l-4-.98h3.98c-.63-19.7-18.07-28.27-35.99-24.01v89.5c0,.57,1.67,6.03,2.12,6.88,1.75,3.3,6.66,3.78,6.88,7.62h-36Z"/>
  <path d="M542.16,54.85c-2.32.27-8.42,2.22-10.45,3.55-4.04,2.65-4.74,8.23-9.04,9.44l1.99-22,83.37.08,1.39,1.56,1.25,22.37h32.99c.55,2.39-.41,1.62-1.3,2.23-2.52,1.72-7.69,4.52-7.69,8.27v26.5h37v-25.5c0-4.05-3.91-7.84-7-10.01l1.58-2.46c.75-.14,1.6.97,1.92.97h26.5c.13,3.18-4.29,4.68-5.45,7.05-1.06,2.17-1.43,6.84-1.6,9.4-1.05,15.6-1.48,43.79.06,59.03.72,7.08,3.79,7.92,6.99,13.51h-30c1.83-3.87,7-6.35,7-11.5v-31.5h-37v31.5c0,4.57,5.82,7.98,8,11.5h-33c-.6-2.75,2.58-2.36,4.52-3.98,4.59-3.84,2.26-4.76,2.8-8.34.15-.96,1.51-1.89,1.66-3.21.27-2.46-1.68-7.23-1.99-9.96l2.01.5c-3.33-7.29,1.97-14.91-2-21.55,5.54-1.79-.96-3.08-.98-3.95-.01-.63,5.04-8.72,2.99-12l-2,.51c-.38-2.69-.04-2.5,2.01-3.51l-2.03-2c-.53-2.87,1.81-.23,2.01-.49,1.55-2.1-2.04-1.99-2.02-2.51l2.07-4.01-1.95-1.91c3.39-5.81-3.4-8.64-6.59-12.57-1.03,1.38.2,2.54-2.49,2-.11-8.6-11.72-17-19.51-17h-14.5c2.32,30.92.3,62.34,1.06,93.44,1.04,6.6,7.29,5.65,9.94,10.56h-36c1.11-4.68,8-5.51,8-11.5V54.85c-4.64.39-9.97-.53-14.5,0Z"/>
  <path d="M629.66,294.85v-2.98c3.59.23,7.21-3.41,9.36-6.02.61-.74-1.73-1.88,2.72-2.62l17.81-49.3-1.89-1.06c1.82,1.07,4.22-2.39,4.9-3.81,2.12-4.41,10.37-27.73,9.91-31.49-.28-2.32-6.36-6.53-6.31-9.73,4.85,2.23,20.78-1.71,23.55,1.46,2.53,2.91,8.09,22.39,10.19,27.8,1.31,3.36,3.38,6.44,4.53,9.47,5.3,13.96,16.84,55.65,26.27,63.74,2.05,1.76,4.9.48,3.95,4.54h-37c-.55-3.37,5.16-4.81,6-6.5l-2.98-1.48c2.99.4.61-1.7,2.49-3.01l1.48,1.99c.01-2.81.47-5.91-1.09-8.43-.68-1.1-2.43-1.36-2.67-1.74-.21-.33.64-1.82.31-2.83-.83-2.52-4.17-13.99-5.03-15.02-1.05-1.26-2.58-1.06-4.01-1.08-10.13,1.67-21.16-1.09-31.04,1.07-2.12,7.28-10.37,22.77-6.52,29.58,1.99,3.53,7.42,3.81,8.05,7.45h-33ZM679.65,210.85c-2.6-.46-1.54.38-2.08,1.42-5.53,10.77-7.66,25.41-12.9,36.58l27.99-1c-3.12-8.15-5.34-19.6-9.09-27.2-.67-1.35-3.75-3.18-4.9-4.3l1.99-.48-1-5.01Z"/>
  <path d="M794.66,442.85c-1.62-1.41,7.52-6.29,8.64-7.36,7.07-6.71,20.01-46.08,24.25-57.45,1.88-5.05,9.48-23.7,9.09-27.6-.55-5.51-6.45-4.99-6-9.58l23.37-1.09c4.54,11.15,7.89,22.81,12.14,34.07.9,2.39,2.68,4.24,3.52,6.48,5.46,14.6,13.54,47.48,23.94,57.05,2.55,2.34,5.93,1.57,5.03,5.48h-35.5c-.58,0-2.04,1.62-3.5.99l1.48-4.99,2.01,1c1.76-.86.37-2.7.67-2.88.53-.33,2.05.18,2.59-.29,2.54-2.22-.58-9.86-.76-12.82l-1.98,1.99-1.02-2.51,2.07-1.04-3.54-11.46c-1.97-2.37-30.7-1.36-36-1.04-3.39,10.26-12.61,27.71,4.48,30.06.58.64-.91,2.99-1.5,2.99h-33.5ZM829.66,400.85h28c-2.15-3.78-7.73-25.12-9.98-26.45-.51-.3-1.95.56-2.02.45-.24-.4.86-2.54.58-4.05-.57-3.05-3.22-6.25-3.08-9.96l-13.5,40.01Z"/>
  <path d="M1051.16,209.85c.5-.13,2.02-2.56,2.49-2l-1.49,6.99c-3.41,2.86,1.24-3.15-1.98-1.98-1.33.48-4.52,3.25-4.52,4.48v28.5h34v-26.5c0-5.35-6.09-5.06-6.82-5.73-.51-.47.45-3.3-2.17-2.79.06-2.36,2.71-.98,3.49-.98h26c.27,0,1.06-.92,1.98-1.02l.5,2c-9.07,3.77-8.66,13.87-9.02,22.47-.44,10.31-1.34,44.19,1.59,52.5,1.18,3.36,5.95,5.39,6.46,9.04h-29c-.27-3.09,3.4-3.51,4.88-5.62,4.77-6.83.71-25.82,2.12-34.38h-34v31.5c0,4.1,9.2,5.04,8.02,9.99l-1.02-1.49h-29c.09-3.1,3.49-4.09,4.77-6.73,2.21-4.56,1.87-57.19,1.27-65.81-.52-7.56-2.33-7.08-6.04-12.46,7.27-1.28,21.12,1.72,27.5,0Z"/>
  <path d="M870.16,209.85c26.41,2.68,39.78,21.78,37.54,47.54-1.79,20.56-19.22,35.04-38.98,36.56l-.05,2.9-1-2h-36c-.79-3.93,3.04-3.24,4.77-6.73.75-1.51,1.04-3.11,1.23-4.77,1.6-14.09,1.26-45.61.04-60.04-.18-2.17-.82-6.02-2-7.74s-5.5-2.52-5.04-5.72c12.67.94,27.04-1.26,39.5,0ZM853.66,217.85v68c11.83,1.55,23.01.26,30.44-10.06,11.64-16.19,10.16-39.77-5.05-52.28-1.34-1.1-1.64-2.54-3.84-3.71-6.03-3.24-14.93-2.13-21.55-1.95Z"/>
  <path d="M822.16,209.85c.13,0,2.5-1.95,2.48.5-.01,1.32-2.49.73-2.71.89-1.47,1.06-3.18,4.34-5.27,5.33l-2,78.29c-2.33-.11-4.76.55-6.99-.56-2.35-1.17-12.38-15.75-15.04-18.96-3.7-4.47-26.24-33.76-28.26-34.76-.92-.46-2.48.31-2.61.16-.97-1.22-1.99-6.98-4.1-7.88v51.5c0,.33,1.99,6.04,2.22,6.28.95.96,6.43.52,5.78,4.22h-26c-.39-3.74,4.61-3.87,6.06-5.7,1.15-1.45,2.59-6.88,2.83-8.91,1.53-12.79,1.31-41.86.15-54.93-.45-5.06-1.76-9.2-6.56-11.47-.94,1.48.12,2.53-2.48,2,1.49-3.26-.46-3.56-2-5.99h23c.27,1.82,1.43,3.55,2.59,4.91,14,16.47,26.3,34.24,39.92,51.08l.65-1.76,1.84.77c1.45-1.97-4.19-17.12.02-20.53l-2.04-1.04.04-6.45,1.98,1.02c-.2-2.96,1.32-5.64-2-6.52l.05-1.47c3.36.07,2.22-5.93-1.03-6.53l2-.99-1.99-2.49,2-.49c-1.59-5.75-7.2-5.1-8.01-10.51,1.27-.49,2.29.99,2.5.99,7.66,0,15.35-.17,23,0Z"/>
  <path d="M970.16,69.85c.13,0,2.63-1.96,2.48.5-.05.86-5.64,3.87-6.86,6.12-4.81,8.94-1.1,43.37-2.09,55.91-1.78,22.65-16.77,28.9-37.58,27.51-46.62-3.1-22.75-53.07-31.01-82.99l-6.45-7.05h31c-.68,3-4.57,4.75-5.86,7.64-.46,1.03-.89,1.67-1.09,2.91-1.52,9.31-1.1,42.94.05,52.84,1.68,14.39,11.66,21.09,25.95,18.17,7.78-1.59,13.92-9.53,14.83-17.17,1.36-11.4,1.28-39.29,0-50.78-1.03-9.27-5.01-7.12-8.89-13.61,8.48-.11,17.01.15,25.5,0Z"/>
  <path d="M1124.66,69.85l-45,81h23.5c5.12,0,14.19-5.46,17.5-9.5.81-.99,5.21-10.29,7-8.49-2.52,7.93-3.86,17.58-4,25.99h-67l46-81h-22.5c-2.99,0-11.53,2.93-14.01,4.99-1.51,1.25-5.59,6.94-6.38,8.72-1.06,2.37.94,4.59-1.59,4.29-3.25-3.16-.13-8.67.36-12.61.55-4.39.76-8.97,1.12-13.38h65Z"/>
  <path d="M1006.16,77.85c-2,.16-6.82.83-8.77,1.23-7.5,1.57-9.32,3.58-13.56,9.44-1.87,2.58-1.16,6.31-5.17,5.32l4-25,63.99.5-44.99,81.51h20.5c2.36,0,11.62-2.68,14.03-3.97,4.8-2.56,6.19-5.9,9.18-9.77.64-.83-.02-1.83,2.29-1.26l-2.99,22.99h-67l30.27-51.32c1.38-3.69-2.59-4.25,2.81-5.3l13.92-24.38h-18.5Z"/>
  <path d="M1255.66,69.85l1,21.99c-2.89,2.45-5.68-6.77-7-8.49-2.45-3.2-7.61-5.51-11.49-5.51h-15.5v31h16.5c.49,0,4.33-1.52,5.02-1.97,2.81-1.84,2.71-5.91,6.47-5.03v24.01s-3.09-.6-3.09-.6c-1.7-11.49-16.22-8.82-24.91-9.41v35c8.92-.19,23.13,1.09,30.03-5.47,2.18-2.07,6.58-12.07,9.47-6.53,2.01,3.85-1.55,2.57-2.33,4.64-1.33,3.52-1.04,11.26-2.17,15.36h-58c.1-2.95,3.16-3.23,4.85-5.65,1.55-2.22,1.94-4.15,2.2-6.8,1.42-14.78,1.57-49.45-.05-64.05-.22-1.95-1.02-5.33-2.12-6.88-2.11-2.97-5.9-1.32-4.88-5.62h56Z"/>
  <path d="M700.66,158.85c1.53-2.37,5.07-3.21,6.85-5.65,1.56-2.12,1.95-4.23,2.2-6.8,1.39-14.58,1.63-50.73-.14-64.96-.17-1.34-1.17-4.86-1.88-5.87-2.05-2.94-7.25-1.29-6.04-5.72l55.4-.09c.4.1,1.61,3.34,1.61,3.58v18.5c-2.36.48-1.61-.3-2.24-1.29-1.55-2.41-2.04-5.29-4.23-7.74-5.63-6.32-18.74-4.67-26.53-4.96l.48,1.98c4.05-2.52,3.56,2.1-.48,1.01v26.5c.88,1.37,2.01,1.46,3.49,1.59,3.15.28,16.55-1.43,19.01-3.08,2.94-1.97,2.78-5.91,6.49-5,.38,1.08-1,2.18-1,2.49v22.5c-2.94.28-2.14-3.5-4.46-6.05-4.61-5.07-17.07-3.69-23.54-3.95v33.5l1.5,1.5h16c2.49,0,10.4-2.82,12.46-4.54,2.84-2.36,3.75-6.89,6.53-9.45,2.26,1.44,1.1,2.27,1.02,3.98-.29,5.7-1.59,13.07-4.02,18h-58.5Z"/>
  <path d="M955.16,196.85c-10.08,1.24-11.22,5.97-16.67,12.33-.89,1.04-.97,2.1-2.83,1.66-1.05-1.19,3.27-16.24,3.09-19.51-.15-2.63-2.1-3.17-2.09-5.48l1.99,1.99c2.55-.06,4.93.91,7.47,1.05,16.15.9,51.09,2.11,66.09.01,2.58-.36,3.89-2.26,6.45-2.04-1.45,7.95,2.08,16.61.99,24.99-4.22-.71-2.46-3.51-3.68-5.76-1.66-3.05-11.54-9.24-14.81-9.24h-14.5v85.5c0,3.36,3.8,9.72,8,9.51.58.77-.96,2.99-1.5,2.99h-29.5c-.91-3.61,1.87-2.99,3.55-4.93,2.53-2.93,3.15-8.61,3.44-12.58,1.43-19.34,1.07-47.52.05-67.03-.23-4.35-1.83-8.82-1.04-13.46-4.62.4-10-.56-14.5,0Z"/>
  <path d="M1163.66,209.85l.99,21c-4.46-.61-4.16-5.94-7.64-8.85-1.12-.93-7.95-4.15-8.85-4.15h-17.5v29c.73.27,1.2-1,1.5-1h15c4.38,0,9.58-8.89,11.49-7,.33,2.61-.5,5.86.03,8.32.08.39,2.62.62,1.62,4.46-.04.17-1.52.18-1.67.9-.28,1.37.95,8.38,0,9.32l-3.83-.16c-.39-5.42-4.42-3.94-5.9-5.14-.52-.42-.17-1.7-.25-1.7h-16.5c-.3,0-.77-1.27-1.5-1v30.5c0,.37,1.32,1.5,1.01,2.51,13.19-3.13,21.15,2.61,31.46-9.06,1.76-1.99.47-4.92,4.53-3.94l-4,20.99h-54c.04-3.05,3.2-6.76,5.02-8.57l-1.05-2.86c3.99-7.29,1.41-21.88,1.45-31.07.04-8.46,2.59-29.95-1.53-36.89-1.56-2.62-4.82-1.9-3.89-5.61h54Z"/>
  <path d="M1161.16,69.85c.82,0,2.47-1.86,2.49,1.98-9.3,3.18-8.16,9.96-8.66,18.39-.9,15.13.42,30.92.7,46.09.07,3.96-2.76,10.79.46,14.55h16c1.65,0,10.65-3.32,12.43-4.57,3.77-2.64,4.44-6.45,7.57-9.41,2.08,1.34.91,1.61.83,2.77-.42,6.19-2.14,13.09-3.33,19.21h-58l.62-3.08c2.55-.55,5.14-2.29,5.93-4.87.7-2.27,1.32-10.54,1.49-13.51.81-14.32,1.21-38.99-.06-53.02-.78-8.67-3.28-7.95-7.97-14.04-.27-3.05,1.08-.48,1.49-.48,9.33,0,18.67.05,28,0Z"/>
  <path d="M299.67,43.86l-.5,2c35.91-7.05,72.87,7.1,105.42,21.07,1.69,2.37-11.26,17.32-12.42,20.91-7.89-5.35-14.98-11.88-23.2-16.8-6.12-3.66-8.34-3.82-14.1-5.49-.29-.08-3.72-3.63-4.46-4-3.86-1.9-9.79-5.07-13.75-3.72l1.01-1.98-38.45-8.06-1.05,2.05-3.5-2.5,5.01-3.5Z"/>
  <path d="M396.28,386.47c-5.3,5.57-11.33,10.29-16.6,15.89-10.93,7.69-20.69,16.86-33.01,22.48v-4c2.97,1.29,7.66-3.4,10.01-5.48,16.68-14.77,34.28-33.45,46.62-52.38,3.29-5.05,6.33-10.36,8.49-16.01,1.72-1.09,11.8,3.67,11.85,4.37-8.28,12.32-17.12,24.37-27.36,35.13Z"/>
  <path d="M439.67,356.86c-2.71,9.14-7.02,17.6-10.42,26.49-.27.71,1.32,2.32-1.57,1.5l1-32,10.99,4.01Z"/>
  <path d="M382.3,89.22c1.58,1.25,3.59,3.78,5.34,5.12-5.57,5.19-11.81-4.08-11.97-9.5,1.83,1.97,4.66,2.83,6.63,4.38Z"/>
  <path d="M257.66,113.85c3.97,1.43,7.12,5.33,12.04,5.52l-.05,3.49h-4.48c-1.33-.03,1.23-1.78-.02-2.01-2.7-.49-.46,2.26-2.48,1.99l-.2-1.63c-1.66.55-3.15-1.24-3.82-1.35l-1-6Z"/>
  <path d="M263.66,3.85c1.09-.62,3.89-5.13,6.01-3.49-.53,1.9-2.69,5.54-3.97,6.8-.97.96-1.96.61-2.04.69V3.85Z"/>
  <path d="M247.66,112.85c-.09,0,.14.82-1.48.97-2.17.21-4.37,0-6.53.03v-2c2.68.03,5.85-.72,8.01,1Z"/>
  <path d="M250.66,119.85l-.03,1.38,2.02,1.61-2.45.04-2.54-2.03v-1.99c1.42-.64,2.73.97,3,.99Z"/>
  <path d="M257.66,119.85c2.72,3.56-.58,4.29-3,1.5l2-1.5c.33.04.68-.05,1,0Z"/>
  <path d="M245.66,120.85c.34,3.8-1.05.99-2,1v-1.99s2,.99,2,.99Z"/>
  <path d="M254.66,113.85l-1.99.99v-1.99c1.75.1,1.88.98,1.99,1Z"/>
</svg>